<svg width="30.000000" height="30.000000" viewBox="0 0 30 30" fill="none" xmlns="http://www.w3.org/2000/svg" xmlns:xlink="http://www.w3.org/1999/xlink">
	<defs/>
	<path id="Vector" d="M22.2422 2.69531L19.5 5.39062L17.4375 5.32031C15.8203 5.29688 15.1875 5.36719 14.6016 5.69531C11.3438 7.45312 11.9062 12.3984 15.4922 13.3594C16.2656 13.5703 16.4297 13.7344 16.6406 14.5078C17.6016 18.0938 22.5469 18.6562 24.3047 15.3984C24.6094 14.8125 24.7031 14.1562 24.6562 12.5859L24.6094 10.5L27.3047 7.75781C28.8281 6.1875 30 4.80469 30 4.54688C30 3.9375 26.0391 0 25.4297 0C25.1484 0 23.8828 1.07812 22.2422 2.69531ZM26.25 7.17188C24.8203 8.64844 23.625 10.0547 23.5312 10.4297C23.4375 10.7812 23.4375 11.6953 23.5312 12.4688C23.6953 14.2031 23.2969 15.2812 22.2188 15.9375C21.2344 16.5234 20.0156 16.5469 19.0547 15.9375C18.1406 15.3984 17.8359 14.8359 17.6953 13.5703C17.6484 13.0312 17.5547 12.5625 17.5078 12.4922C17.4375 12.4453 16.9688 12.3516 16.4297 12.3047C15.1641 12.1641 14.6016 11.8594 14.0625 10.9453C13.4531 9.98438 13.4766 8.76562 14.0625 7.78125C14.7422 6.67969 15.75 6.32812 17.7656 6.49219C19.8281 6.65625 20.1562 6.46875 23.2031 3.42188L25.4297 1.17188L27.1172 2.85938L28.8047 4.54688L26.25 7.17188Z" fill="#4CD080" fill-opacity="1.000000" fill-rule="nonzero"/>
	<path id="Vector" d="M10.7812 5.97656C10.7812 6.63281 10.875 6.79688 11.2266 6.79688C11.8359 6.79688 12.0234 6.44531 11.8594 5.71875C11.7656 5.36719 11.5312 5.15625 11.25 5.15625C10.875 5.15625 10.7812 5.32031 10.7812 5.97656Z" fill="#4CD080" fill-opacity="1.000000" fill-rule="nonzero"/>
	<path id="Vector" d="M7.57028 7.87488C7.49997 8.08582 7.64059 8.46082 7.94528 8.74207C8.39059 9.18738 8.48434 9.21082 8.78903 8.88269C9.09372 8.578 9.09372 8.48425 8.76559 8.0155C8.34372 7.40613 7.78122 7.33582 7.57028 7.87488Z" fill="#4CD080" fill-opacity="1.000000" fill-rule="nonzero"/>
	<path id="Vector" d="M5.20306 11.2969C5.24994 11.7188 5.43744 11.8359 5.9765 11.8359C6.51556 11.8359 6.70306 11.7188 6.74994 11.2969C6.82025 10.8516 6.7265 10.7812 5.9765 10.7812C5.2265 10.7812 5.13275 10.8516 5.20306 11.2969Z" fill="#4CD080" fill-opacity="1.000000" fill-rule="nonzero"/>
	<path id="Vector" d="M7.61719 12.75C6.67969 13.1484 5.69531 14.3203 5.41406 15.4219C5.27344 15.8906 5.22656 16.9922 5.32031 17.8594L5.46094 19.4297L2.71875 22.2188C1.17188 23.7891 0 25.1953 0 25.4531C0 26.0625 3.96094 30 4.59375 30C5.08594 30 6.09375 29.1094 6.09375 28.6641C6.09375 28.2422 5.46094 28.125 4.99219 28.4766C4.61719 28.7812 4.40625 28.6406 2.88281 27.1172L1.19531 25.4531L3.75 22.8281C5.17969 21.3516 6.375 19.9453 6.46875 19.5703C6.5625 19.2188 6.5625 18.3047 6.46875 17.5312C6.30469 15.7969 6.70312 14.7188 7.78125 14.0625C8.76562 13.4766 9.98438 13.4531 10.9453 14.0625C11.8594 14.6016 12.1641 15.1641 12.3047 16.4297C12.3516 16.9688 12.4453 17.4375 12.4922 17.5078C12.5625 17.5547 13.0312 17.6484 13.5703 17.6953C14.8359 17.8359 15.3984 18.1406 15.9375 19.0547C16.5469 20.0156 16.5234 21.2344 15.9375 22.2188C15.2578 23.3203 14.25 23.6719 12.2344 23.5078C10.6875 23.3906 10.4766 23.4141 9.60938 24C9.09375 24.3281 8.67188 24.7734 8.67188 24.9609C8.67188 25.5703 9.30469 25.6172 10.0547 25.1016C10.6172 24.6797 11.0391 24.6094 12.6797 24.6562C14.1797 24.7031 14.8359 24.6094 15.3984 24.3047C18.6562 22.5469 18.0938 17.6016 14.5078 16.6406C13.7344 16.4297 13.5703 16.2656 13.3594 15.4922C12.7031 13.0781 9.91406 11.7422 7.61719 12.75Z" fill="#4CD080" fill-opacity="1.000000" fill-rule="nonzero"/>
	<path id="Vector" d="M7.05472 26.4609C6.65628 26.7188 6.89066 27.4219 7.35941 27.4219C7.87503 27.4219 8.06253 26.9531 7.71097 26.5781C7.50003 26.3906 7.26566 26.3438 7.05472 26.4609Z" fill="#4CD080" fill-opacity="1.000000" fill-rule="nonzero"/>
</svg>
