<svg width="25.270233" height="25.000000" viewBox="0 0 25.2702 25" fill="none" xmlns="http://www.w3.org/2000/svg" xmlns:xlink="http://www.w3.org/1999/xlink">
	<defs/>
	<path id="Vector" d="M20.7838 0.190369C20.5542 0.273804 19.9908 0.73291 19.5317 1.21283C18.9057 1.85974 18.7805 2.13098 18.9683 2.31879C19.1353 2.48578 19.4274 2.33966 20.1369 1.69281C21.2011 0.712036 21.9106 0.586853 22.5575 1.2337C23.4339 2.11017 23.1835 2.48578 19.6987 5.92883L16.4017 9.1424L14.5236 9.16327L12.6456 9.16327L15.6296 6.17926C18.0502 3.75867 18.5718 3.13263 18.3423 2.94482C18.1128 2.75702 17.7789 2.98657 16.7147 4.05078L15.3792 5.40717L13.4803 5.40717C11.0596 5.40717 10.2041 5.65759 9.07724 6.70093C8.34689 7.36871 8.20084 7.61908 8.38864 7.82776C8.57645 8.07819 8.76425 7.99469 9.36938 7.47302C10.4336 6.534 11.2892 6.24188 13.0003 6.24188L14.5236 6.24188L10.538 10.2066C7.09488 13.6497 6.48972 14.1714 5.9263 14.1714C5.09161 14.1714 4.61166 13.6915 4.61166 12.8776C4.61166 12.356 4.92468 11.9177 6.28104 10.5197C7.63742 9.1424 7.90869 8.76678 7.67914 8.57898C7.44962 8.39117 7.01138 8.72504 5.59241 10.1858C3.90216 11.9177 3.77698 12.0847 3.77698 12.8985C3.77698 13.5872 3.90216 13.921 4.36127 14.3592C4.67426 14.6722 5.07074 14.9852 5.23767 15.0479C5.46722 15.1313 4.73688 15.9869 2.77533 17.9692L0 20.7654L0.0625916 22.8522L0.125214 24.918L1.18942 24.8972C2.87967 24.8555 4.44473 24.0208 6.34363 22.1427C7.92957 20.5568 7.95041 20.5359 7.95041 19.4508C7.95041 18.324 8.24255 17.8232 8.47211 18.5327C8.65991 19.1378 9.78674 20.0142 10.371 20.0142C10.7675 20.0142 10.8718 20.1186 10.8718 20.5568C10.8718 21.2872 12.103 22.5183 12.8333 22.5183C13.2716 22.5183 13.3759 22.6226 13.3759 23.0609C13.3759 23.3947 13.6472 23.8747 14.1063 24.3337C14.774 25.0015 14.9409 25.0641 15.6922 24.9598C16.9651 24.7928 18.864 22.8939 18.071 22.5809C17.8415 22.4974 17.4242 22.7479 16.8399 23.3322C15.88 24.2712 15.254 24.3964 14.6279 23.7703C13.8141 22.9565 14.0645 22.414 16.2347 20.202C17.7998 18.5953 18.1962 18.0736 18.0084 17.8858C17.8206 17.698 17.299 18.0945 15.6922 19.6595C13.4803 21.8297 12.9377 22.0801 12.1239 21.2663C11.3101 20.4525 11.5605 19.9099 13.7307 17.698C15.2957 16.0912 15.6922 15.5695 15.5044 15.3817C15.3166 15.1939 14.7949 15.5904 13.1881 17.1555C10.9762 19.3256 10.4336 19.576 9.61981 18.7622C8.88943 18.0319 9.09811 17.5102 10.8301 15.7782L12.4369 14.1714L15.1079 14.1714L17.758 14.1714L18.5718 15.0479C19.6361 16.2164 21.3055 17.1971 22.8705 17.6145C24.5399 18.0319 25.0616 18.0319 25.0616 17.5311C25.0616 17.2389 24.8529 17.1137 24.1434 17.0302C22.3279 16.7798 20.909 16.0703 19.4274 14.6722L18.0293 13.3367L15.1705 13.3367C12.416 13.3367 12.2908 13.3159 11.8109 12.8151C11.1223 12.1473 11.1223 11.1874 11.8109 10.5197C12.3117 9.99799 12.3326 9.99799 16.6103 9.99799C20.742 9.99799 20.8881 9.97711 20.8881 9.58063C20.8881 9.20502 20.742 9.16327 19.2813 9.16327L17.6746 9.16327L19.1144 7.70258L20.5542 6.24188L22.8079 6.24188C24.9155 6.24188 25.0616 6.22101 25.0616 5.82452C25.0616 5.44891 24.9155 5.40717 23.2461 5.40717L21.4307 5.40717L22.5575 4.25946C23.6009 3.19525 23.7052 3.02832 23.7052 2.15186C23.7052 1.33807 23.6009 1.10852 23.0166 0.586853C22.3279 -0.0183105 21.5976 -0.164368 20.7838 0.190369ZM11.1431 13.295L11.5813 13.775L9.34854 16.0078L7.11572 18.2405L7.11572 19.3256C7.11572 20.369 7.09488 20.4107 5.75937 21.6628C4.29865 23.0191 2.90054 23.8329 1.6485 24.0625L0.85556 24.2086L0.85556 22.5809L0.85556 20.9532L5.59241 16.2164L10.3502 11.4587L10.5171 12.1264C10.6214 12.502 10.8927 13.0237 11.1431 13.295Z" fill="#6366F1" fill-opacity="1.000000" fill-rule="nonzero"/>
	<path id="Vector" d="M9.5155 13.3574C9.43204 13.4618 9.53638 13.7539 9.74506 13.9835C10.0163 14.2964 10.1624 14.3173 10.3919 14.1504C10.6215 13.9417 10.6215 13.8374 10.3293 13.5244C9.93286 13.0653 9.70331 13.0236 9.5155 13.3574Z" fill="#6366F1" fill-opacity="1.000000" fill-rule="nonzero"/>
	<path id="Vector" d="M8.26343 14.6094C8.17996 14.7137 8.2843 15.0059 8.49298 15.2354C8.76425 15.5484 8.91031 15.5693 9.13986 15.4023C9.36938 15.1937 9.36938 15.0894 9.07727 14.7764C8.68079 14.3173 8.45123 14.2755 8.26343 14.6094Z" fill="#6366F1" fill-opacity="1.000000" fill-rule="nonzero"/>
	<path id="Vector" d="M4.56998 20.1393C3.8396 20.7653 2.90057 21.4748 2.46237 21.7043C1.7529 22.08 1.50247 22.4764 1.81549 22.7894C2.25369 23.2068 6.57321 19.868 6.36456 19.2838C6.17676 18.8038 5.98895 18.8873 4.56998 20.1393Z" fill="#6366F1" fill-opacity="1.000000" fill-rule="nonzero"/>
	<path id="Vector" d="M19.9491 2.92383C19.8656 3.0282 19.97 3.32031 20.1786 3.54987C20.4499 3.86285 20.596 3.88373 20.8255 3.7168C21.0551 3.50812 21.0551 3.40381 20.7629 3.09082C20.3665 2.63171 20.1369 2.58997 19.9491 2.92383Z" fill="#6366F1" fill-opacity="1.000000" fill-rule="nonzero"/>
	<path id="Vector" d="M18.697 4.17603C18.6136 4.2804 18.7179 4.57251 18.9266 4.80206C19.1978 5.11505 19.3439 5.13593 19.5735 4.96899C19.803 4.76031 19.803 4.65601 19.5109 4.34302C19.1144 3.88391 18.8848 3.84216 18.697 4.17603Z" fill="#6366F1" fill-opacity="1.000000" fill-rule="nonzero"/>
	<path id="Vector" d="M17.4451 5.42798C17.3616 5.53235 17.4659 5.82446 17.6746 6.05402C17.9459 6.367 18.0919 6.38788 18.3215 6.22095C18.551 6.01227 18.551 5.90796 18.2589 5.59497C17.8624 5.13586 17.6329 5.09412 17.4451 5.42798Z" fill="#6366F1" fill-opacity="1.000000" fill-rule="nonzero"/>
	<path id="Vector" d="M16.193 6.67993C16.1095 6.7843 16.2139 7.07642 16.4225 7.30597C16.6938 7.61896 16.8399 7.63983 17.0694 7.4729C17.299 7.26422 17.299 7.15991 17.0068 6.84692C16.6104 6.38782 16.3808 6.34607 16.193 6.67993Z" fill="#6366F1" fill-opacity="1.000000" fill-rule="nonzero"/>
	<path id="Vector" d="M14.9409 7.93213C14.8575 8.0365 14.9618 8.32861 15.1705 8.55817C15.4417 8.87115 15.5878 8.89203 15.8174 8.7251C16.0469 8.51642 16.0469 8.41211 15.7548 8.09912C15.3583 7.64001 15.1287 7.59827 14.9409 7.93213Z" fill="#6366F1" fill-opacity="1.000000" fill-rule="nonzero"/>
	<path id="Vector" d="M24.3938 18.9082C23.893 19.5342 22.4949 20.0142 21.2011 20.0142C19.9908 20.0142 19.8865 20.0558 19.1144 20.8488C18.384 21.6 18.3214 21.7253 18.6136 22.0174C18.9057 22.3095 19.01 22.2678 19.5735 21.6209C20.1369 20.9741 20.3247 20.9114 21.6393 20.8071C22.4323 20.7445 23.3713 20.5567 23.7052 20.3689C24.4147 19.9933 25.2702 19.2421 25.2702 18.9916C25.2702 18.6369 24.6651 18.5743 24.3938 18.9082Z" fill="#6366F1" fill-opacity="1.000000" fill-rule="nonzero"/>
</svg>
