<svg width="22.403196" height="30.000000" viewBox="0 0 22.4032 30" fill="none" xmlns="http://www.w3.org/2000/svg" xmlns:xlink="http://www.w3.org/1999/xlink">
	<defs/>
	<path id="Vector" d="M6.97208 0.0200195C5.82161 0.102295 4.91179 0.507202 4.63004 1.06494C4.53026 1.25269 4.51265 1.46399 4.49504 2.86108C4.47156 4.23462 4.44808 4.50452 4.34242 4.89197C4.16633 5.54358 3.91393 6.01306 3.58522 6.28894C3.42674 6.41809 3.1626 6.64111 2.99238 6.78796C2.39953 7.28101 1.89473 7.95605 1.56602 8.68384C1.2784 9.32361 1.15514 9.89307 1.11992 10.6971C1.09057 11.3605 1.06709 11.4661 0.914478 11.7772C0.691427 12.2115 0.315762 13.3562 0.198366 13.9255C-0.130341 15.5457 -0.0481644 17.512 0.427286 19.361C1.41341 23.2115 3.92567 26.2872 7.60015 28.1479C12.3018 30.5311 15.5889 30.6133 17.6375 28.4004C18.377 27.6022 18.9229 26.5631 19.4747 24.9078C20.8541 20.7462 20.948 16.6139 19.7388 13.3621C19.416 12.5051 18.8349 11.3781 18.4357 10.8439C18.0542 10.3333 17.5024 9.78149 17.0446 9.46448L16.7629 9.25903L17.2207 9.24146C17.837 9.21802 18.4944 9.31189 19.4453 9.55261C19.8738 9.66406 20.3317 9.75806 20.4549 9.75806C21.0184 9.75806 21.67 9.22974 22.0574 8.45496C22.3391 7.88562 22.4272 7.46289 22.3978 6.82312C22.3567 5.98962 22.1337 5.69617 21.2356 5.27942C19.6097 4.51636 18.1188 4.19934 16.4811 4.25806C15.1135 4.31091 14.1567 4.55151 12.9299 5.15027C12.1551 5.52588 11.3627 6.04834 10.7287 6.59424C10.4705 6.81726 10.2592 6.99341 10.2592 6.98755C10.2592 6.97571 10.3002 6.65295 10.3531 6.2655C10.4176 5.78418 10.4529 4.87439 10.4705 3.4187L10.4998 1.27625L10.3648 1.04138C9.93631 0.307739 8.59801 -0.09729 6.97208 0.0200195ZM8.85041 1.17639C9.06172 1.24683 9.29064 1.34668 9.36695 1.39941C9.49608 1.48755 9.49608 1.49927 9.40216 1.60486C9.20846 1.81616 8.19299 2.0686 7.49449 2.0686C6.73729 2.0686 5.45768 1.71057 5.52225 1.52271C5.55746 1.40527 5.8803 1.25269 6.33228 1.12939C6.93686 0.965088 8.28104 0.994507 8.85041 1.17639ZM6.15031 2.90796C6.50837 3.00195 6.76077 3.02539 7.50036 3.02539C8.37496 3.02539 8.85628 2.95496 9.40216 2.73779C9.50782 2.69666 9.50782 2.74365 9.47847 4.1582C9.44912 5.67261 9.34347 6.59424 9.07933 7.72119C8.96193 8.20251 8.94432 8.23779 8.82693 8.20251C7.58254 7.83276 6.03879 7.8562 4.80614 8.26709C3.95502 8.54883 3.32695 8.91272 2.4641 9.61719L2.2704 9.78149L2.30561 9.60535C2.37605 9.28259 2.85737 8.37866 3.12151 8.0675C3.27412 7.89148 3.52653 7.63904 3.69675 7.50989C4.40112 6.93469 4.677 6.63525 4.91766 6.17163C5.28746 5.45544 5.45181 4.74524 5.48703 3.63586C5.51638 2.81409 5.53399 2.71423 5.61616 2.74365C5.66899 2.76709 5.90965 2.83752 6.15031 2.90796ZM17.9779 5.32629C18.606 5.42029 19.504 5.64331 19.8621 5.7959L20.0793 5.88391L19.9325 6.04834C19.5158 6.48853 19.2164 7.22229 19.146 7.95605C19.1225 8.20251 19.0873 8.40796 19.0638 8.40796C19.0462 8.40796 18.7527 8.36694 18.4123 8.31409C17.6022 8.1908 16.4048 8.23193 15.7474 8.4021C14.685 8.68384 13.6636 9.37061 13.6636 9.81079C13.6636 9.93408 13.7164 10.0457 13.8104 10.1395C14.0393 10.3744 14.3093 10.3567 14.6145 10.0808C14.7319 9.97522 14.8787 9.85779 14.9432 9.82263C15.1193 9.72864 15.6887 9.84607 16.1289 10.0632C16.5926 10.2921 17.3909 11.067 17.7842 11.6715C18.5825 12.8983 19.2223 14.6593 19.4219 16.1796L19.4923 16.7372L19.3397 16.9426C19.2516 17.0542 19.0168 17.3124 18.8173 17.5178C17.2618 19.0909 15.3776 19.6368 12.9534 19.2084C12.2079 19.0792 10.7287 18.6625 9.17324 18.1517C8.30452 17.8641 7.44753 17.5941 7.27144 17.559C6.73142 17.4474 5.56334 17.5178 4.99984 17.6998C3.90219 18.0637 2.78106 19.0792 2.15887 20.2766C2.04734 20.4998 1.93582 20.6758 1.91821 20.6758C1.89473 20.6758 1.77147 20.3412 1.63646 19.9362C1.11992 18.3983 0.908607 16.7372 1.03187 15.2874C1.1434 13.9608 1.36645 13.1566 1.9006 12.0707C2.89846 10.0574 4.71222 8.93628 6.96621 8.93628C8.0169 8.93628 8.85628 9.19458 9.68391 9.76978C10.805 10.5504 11.9438 12.1528 12.519 13.7495C12.6012 13.9901 12.7303 14.2484 12.7949 14.3188C13.0649 14.6064 13.6049 14.3893 13.6049 13.9901C13.6049 13.5675 12.9123 12.0178 12.3253 11.1375C11.7149 10.2158 10.8931 9.34717 10.2181 8.91272C10.1124 8.84814 10.0244 8.76599 10.0244 8.73669C10.0244 8.6134 11.5505 7.18115 12.0612 6.82312C13.8808 5.54944 15.9587 5.02112 17.9779 5.32629ZM21.3295 6.50024C21.4058 6.61768 21.4235 6.74683 21.4 7.11658C21.3648 7.68018 21.1241 8.22009 20.7602 8.55469C20.4549 8.83057 20.2965 8.81299 20.1908 8.49597C19.956 7.80334 20.6076 6.40637 21.1887 6.35938C21.2121 6.35352 21.2767 6.41809 21.3295 6.50024ZM19.5686 19.0734C19.4629 21.345 18.9699 23.6049 18.1423 25.6357C17.5259 27.156 16.8039 28.0541 15.8061 28.5471C15.1017 28.8876 14.7084 28.9756 13.781 28.9756C12.6481 28.9756 11.8381 28.8054 10.2005 28.2067C9.31412 27.8839 7.65884 27.0856 6.96034 26.6454C5.23463 25.5536 3.70262 23.9805 2.69302 22.2665L2.51105 21.9672L2.62845 21.6737C3.15673 20.3295 3.99024 19.2612 4.82961 18.8562C5.41072 18.5685 5.85095 18.4863 6.59055 18.5216C7.21861 18.5509 7.28905 18.5685 8.9091 19.1085C10.7111 19.7131 12.1023 20.0829 13.0884 20.2297C13.8691 20.347 15.1956 20.3529 15.8413 20.2356C17.0505 20.0243 18.2244 19.4314 19.2105 18.5333C19.4043 18.3572 19.5745 18.2163 19.5862 18.2104C19.598 18.2104 19.5921 18.5979 19.5686 19.0734Z" fill="#FF8C75" fill-opacity="1.000000" fill-rule="nonzero"/>
	<path id="Vector" d="M4.80613 10.4329C3.88457 10.8966 3.15672 11.6949 2.64605 12.7867C2.37604 13.3795 2.10603 14.4596 2.05907 15.1405C2.02385 15.657 2.02972 15.6805 2.17647 15.8273C2.37017 16.021 2.62844 16.0269 2.83388 15.8448C2.96889 15.7333 2.99824 15.6453 3.04519 15.2227C3.26825 13.2562 4.06067 11.9004 5.36962 11.2723C5.72181 11.0962 5.86268 10.9965 5.91551 10.8732C6.03878 10.5679 5.86855 10.2627 5.52811 10.1923C5.39897 10.1688 5.22875 10.2274 4.80613 10.4329Z" fill="#FF8C75" fill-opacity="1.000000" fill-rule="nonzero"/>
	<path id="Vector" d="M6.20315 20.0243C5.42834 20.1829 4.86484 21.0164 5.03507 21.7559C5.20529 22.5249 5.73944 22.9651 6.50251 22.9651C6.96035 22.9651 7.26558 22.8359 7.57081 22.519C7.85256 22.2196 7.97582 21.9203 7.97582 21.5035C7.98169 20.9224 7.71168 20.4587 7.23036 20.1946C6.91339 20.0243 6.52012 19.9597 6.20315 20.0243ZM6.84296 21.1631C6.931 21.2452 6.97209 21.351 6.97209 21.4918C6.97209 22.0612 6.20902 22.1492 6.01532 21.6033C5.95075 21.4214 6.09163 21.1396 6.2912 21.0515C6.50251 20.9635 6.65512 20.9928 6.84296 21.1631Z" fill="#FF8C75" fill-opacity="1.000000" fill-rule="nonzero"/>
	<path id="Vector" d="M11.6914 21.6384C11.3509 21.926 11.574 22.4954 12.026 22.4954C12.2784 22.4954 12.4897 22.2665 12.4897 21.9965C12.4897 21.562 12.0201 21.3507 11.6914 21.6384Z" fill="#FF8C75" fill-opacity="1.000000" fill-rule="nonzero"/>
	<path id="Vector" d="M14.1685 21.6501C13.8515 21.9729 14.0863 22.4954 14.55 22.4954C14.7026 22.4954 15.0137 22.1842 15.0137 22.0316C15.0137 21.568 14.4913 21.3331 14.1685 21.6501Z" fill="#FF8C75" fill-opacity="1.000000" fill-rule="nonzero"/>
	<path id="Vector" d="M17.1796 21.6677C17.0798 21.7734 17.0094 21.9025 17.0094 21.9965C17.0094 22.1842 17.297 22.4954 17.479 22.4954C17.6492 22.4954 17.9251 22.3428 17.972 22.2312C18.0483 22.0258 18.0073 21.7852 17.8605 21.6443C17.6609 21.4388 17.4027 21.4506 17.1796 21.6677Z" fill="#FF8C75" fill-opacity="1.000000" fill-rule="nonzero"/>
	<path id="Vector" d="M9.17326 22.6421C8.86803 22.9414 9.07934 23.4932 9.49023 23.4932C9.76023 23.4932 9.98916 23.2643 9.98916 22.9943C9.98916 22.5598 9.47262 22.3368 9.17326 22.6421Z" fill="#FF8C75" fill-opacity="1.000000" fill-rule="nonzero"/>
	<path id="Vector" d="M14.8317 23.1823C13.8925 23.6636 13.7399 24.9021 14.5382 25.624C14.7613 25.8236 15.2367 26.0173 15.5126 26.0173C16.0467 26.0173 16.6631 25.5947 16.892 25.0664C17.1209 24.5264 16.98 23.822 16.5574 23.4229C16.1113 23.0002 15.3952 22.9005 14.8317 23.1823ZM15.8648 24.1683C16.0526 24.3503 16.0526 24.6086 15.8706 24.8199C15.6769 25.0488 15.3482 25.0488 15.1545 24.8199C14.8669 24.4912 15.0782 24.0216 15.5126 24.0216C15.6593 24.0216 15.7709 24.0686 15.8648 24.1683Z" fill="#FF8C75" fill-opacity="1.000000" fill-rule="nonzero"/>
	<path id="Vector" d="M11.6914 23.6343C11.3509 23.9219 11.574 24.4912 12.026 24.4912C12.3605 24.4912 12.5836 24.1038 12.4544 23.7574C12.4075 23.646 12.1316 23.4934 11.9673 23.4934C11.9027 23.4934 11.7794 23.5579 11.6914 23.6343Z" fill="#FF8C75" fill-opacity="1.000000" fill-rule="nonzero"/>
	<path id="Vector" d="M7.1599 24.1565C7.03077 24.2915 6.98968 24.5557 7.06598 24.7552C7.08946 24.8022 7.18338 24.8903 7.2773 24.9373C7.41817 25.0077 7.48861 25.0135 7.65296 24.9607C7.88775 24.8844 7.96993 24.7552 7.96993 24.4735C7.96993 24.0685 7.44165 23.8572 7.1599 24.1565Z" fill="#FF8C75" fill-opacity="1.000000" fill-rule="nonzero"/>
	<path id="Vector" d="M9.66627 24.6614C9.48431 24.8433 9.45496 25.0077 9.56648 25.2131C9.66627 25.4069 9.79541 25.4832 10.0126 25.489C10.5233 25.4949 10.6759 24.8022 10.218 24.5615C10.0126 24.4501 9.84823 24.4794 9.66627 24.6614Z" fill="#FF8C75" fill-opacity="1.000000" fill-rule="nonzero"/>
	<path id="Vector" d="M11.6386 26.2051C11.5153 26.3518 11.4918 26.4281 11.5153 26.569C11.5623 26.798 11.6973 26.9388 11.9027 26.9857C12.3723 27.0914 12.6893 26.5044 12.343 26.1639C12.1316 25.9468 11.8382 25.9644 11.6386 26.2051Z" fill="#FF8C75" fill-opacity="1.000000" fill-rule="nonzero"/>
	<path id="Vector" d="M14.3328 26.5457C14.0099 26.6748 13.9219 27.1033 14.1626 27.3381C14.4619 27.6433 15.0137 27.432 15.0137 27.0211C15.0137 26.6865 14.6263 26.4224 14.3328 26.5457Z" fill="#FF8C75" fill-opacity="1.000000" fill-rule="nonzero"/>
</svg>
