<svg width="26.856802" height="30.000000" viewBox="0 0 26.8568 30" fill="none" xmlns="http://www.w3.org/2000/svg" xmlns:xlink="http://www.w3.org/1999/xlink">
	<defs/>
	<path id="Vector" d="M0.613892 0.210693C0.473446 0.444763 0.567076 1.96625 0.871376 4.37726C0.965008 5.14972 0.918192 5.38379 0.660707 5.38379C-0.158564 5.38379 -0.181973 5.89874 0.403221 12.2891C0.941601 18.1644 0.965008 19.2411 0.590485 21.6053C0.496853 22.2139 0.567076 22.6587 0.824562 23.0566C1.17568 23.5716 1.17568 23.7823 0.894785 24.8824C0.496853 26.4507 0.707523 27.4807 1.64383 28.417C2.36947 29.1193 2.4397 29.1426 4.8741 29.2129C6.53605 29.2831 7.54258 29.4235 7.84688 29.6342C8.57252 30.1258 19.6444 30.1258 19.8316 29.6108C19.9487 29.3299 20.4871 29.2597 22.7342 29.2597C25.1218 29.2597 25.5665 29.1895 26.0815 28.7915C26.9476 28.1127 27.088 27.153 26.5029 25.8655C26.1283 25.0229 25.824 24.6952 25.0282 24.3441C24.4664 24.0865 23.6471 23.8759 23.2024 23.8759C22.7576 23.8759 21.8681 23.7355 21.2127 23.5716C20.2998 23.3375 20.0189 23.1503 19.9721 22.7523C19.8785 22.1437 19.2699 21.7224 15.4076 19.6859C13.6286 18.7262 12.5752 18.024 12.4582 17.6962C12.3412 17.4153 12.505 15.0511 12.8093 12.172C13.4882 5.85193 13.4882 5.59448 12.9498 5.45398C12.5518 5.36035 12.5518 5.19653 12.8327 2.87915C13.137 0.327698 13.1136 0 12.5518 0C12.0603 0 11.9432 0.304321 11.6623 2.87915L11.3815 5.26672L6.77013 5.33698L2.1588 5.38379L2.01836 4.04956C1.66724 0.655396 1.5502 0.117065 1.15227 0.046814C0.941601 0 0.707523 0.0936279 0.613892 0.210693ZM12.1539 7.18616L12.0837 7.84161L6.65309 7.9118L1.19909 7.95862L1.19909 7.25641L1.19909 6.55414L6.72331 6.55414L12.2241 6.55414L12.1539 7.18616ZM6.69991 9.87805C6.62968 10.2994 6.3722 12.3359 6.11471 14.3958C5.74019 17.3685 5.71678 18.1878 5.95086 18.4219C6.58287 19.0773 6.84035 18.3282 7.30851 14.2553C7.5894 11.9614 7.94052 9.9483 8.12778 9.64398C8.43208 9.17584 8.66615 9.12903 10.2345 9.12903L11.9901 9.12903L11.8496 10.1121C11.7794 10.674 11.5687 12.5466 11.3815 14.2787C10.9601 18.4687 11.0303 18.6326 14.0265 20.2477L16.18 21.4181L16.1332 23.1736C16.063 24.7654 16.0162 24.9293 15.548 24.9995C15.2905 25.0463 13.5818 24.3441 11.7794 23.4312C9.01727 22.0501 8.45549 21.8394 8.22141 22.1203C8.08096 22.3076 8.01074 22.5651 8.10437 22.7055C8.40867 23.1736 14.7522 26.2167 15.4778 26.2167C16.18 26.2167 16.18 26.2401 16.18 27.5041L16.18 28.7915L12.3178 28.7915C7.96392 28.7915 7.98733 28.7915 7.98733 26.9189C7.98733 25.889 7.37873 24.4845 6.65309 23.8291C5.92745 23.1736 4.5698 22.7055 3.3526 22.7055C1.76087 22.7055 1.57361 22.4012 1.92472 20.6691C2.1588 19.5688 2.1354 18.5155 1.80769 14.981C1.59702 12.5934 1.43316 10.2994 1.43316 9.87805L1.43316 9.12903L4.12505 9.12903L6.84035 9.12903L6.69991 9.87805ZM18.1697 22.5182C18.7549 22.7758 18.7549 22.7991 18.7549 25.7953L18.7549 28.7915L18.0527 28.7915L17.3504 28.7915L17.3504 25.5145C17.3504 23.712 17.3972 22.2374 17.4675 22.2374C17.5143 22.2374 17.842 22.3544 18.1697 22.5182ZM5.06136 24.2036C6.11471 24.6484 6.81694 25.8187 6.81694 27.0828L6.81694 28.0893L4.96773 28.0893C3.44623 28.0893 3.02489 27.9957 2.48651 27.5743C1.87791 27.1061 1.8545 26.9891 1.97154 25.7251C2.04176 24.9761 2.1588 24.2738 2.25243 24.1334C2.4631 23.7589 4.12505 23.8291 5.06136 24.2036ZM22.9917 25.0463C24.7005 25.2803 25.1686 25.5613 25.5431 26.4742C26.1049 27.785 25.7538 27.9722 22.6406 28.0425L19.9253 28.1127L19.9253 26.3103L19.9253 24.5313L20.8148 24.6952C21.2829 24.7888 22.2661 24.9526 22.9917 25.0463Z" fill="#2A2960" fill-opacity="1.000000" fill-rule="nonzero"/>
	<path id="Vector" d="M6.6531 20.0604C6.16154 20.2476 6.30199 21.0669 6.79355 21.0669C7.05103 21.0669 7.33193 20.9498 7.42556 20.8094C7.61282 20.4817 7.02763 19.9199 6.6531 20.0604Z" fill="#2A2960" fill-opacity="1.000000" fill-rule="nonzero"/>
</svg>
