<svg width="29.999786" height="30.000000" viewBox="0 0 29.9998 30" fill="none" xmlns="http://www.w3.org/2000/svg" xmlns:xlink="http://www.w3.org/1999/xlink">
	
	<defs/>
	<path id="Vector" d="M13.464 0.169922L13.2706 0.339966L13.2413 3.08875L13.2119 5.83179L13.0185 6.24207C12.8603 6.57605 12.6844 6.78711 12.0339 7.44348L11.2485 8.2406L10.8265 8.03552C10.4514 7.8479 10.3459 7.82446 9.8653 7.80688C9.39053 7.78931 9.26746 7.80688 8.82788 7.95935C8.13629 8.19373 7.42123 8.68604 6.67688 9.43628C3.56467 12.5602 0.493469 19.5876 0.0480347 24.6223C-0.145386 26.8202 0.247314 28.432 1.19095 29.2936C1.7067 29.7683 2.55069 30.0554 3.20712 29.991C4.26212 29.8796 6.29004 28.8657 8.84546 27.1719C9.46674 26.7616 9.92975 26.4919 10.0177 26.4919C10.0997 26.4919 10.3283 26.4509 10.5334 26.4041C11.5884 26.152 12.5731 25.3607 13.0654 24.3702C13.4874 23.5028 13.4874 23.579 13.4581 18.4916C13.4347 13.668 13.4405 13.75 13.1182 12.1089L12.9951 11.4701L13.9973 10.4679L14.9996 9.46558L16.0018 10.4679L17.0041 11.4701L16.881 12.0796C16.5645 13.709 16.5234 14.4475 16.5234 19.0192C16.5234 23.5614 16.5234 23.5262 16.9396 24.382C17.4085 25.3314 18.4459 26.1637 19.4598 26.4041C19.665 26.4509 19.8994 26.4919 19.9815 26.4919C20.0694 26.4919 20.5324 26.7616 21.1537 27.1719C23.756 28.9009 25.7605 29.8972 26.8272 29.991C27.5657 30.0613 28.4272 29.7097 28.9606 29.1411C30.2676 27.7286 30.3438 24.8274 29.1775 20.5898C28.9606 19.8044 28.8317 19.6345 28.4507 19.6345C28.2631 19.6345 28.1694 19.6697 28.0463 19.7869C27.8412 19.9979 27.847 20.1913 28.099 21.0939C28.6089 22.9402 28.7965 24.1769 28.7965 25.6128C28.7965 26.826 28.7262 27.2539 28.4155 27.881C28.1342 28.4672 27.5774 28.8364 26.9796 28.8364C26.6455 28.8364 25.866 28.5492 25.0044 28.1096C23.9611 27.5822 23.2578 27.1543 21.7515 26.1578C20.5793 25.3724 20.5558 25.3666 20.1397 25.3138C19.9053 25.2904 19.6005 25.226 19.454 25.1732C18.6158 24.8743 17.9536 24.1066 17.7601 23.2214C17.7191 23.0046 17.6956 21.6859 17.6956 18.9722L17.6956 15.0336L18.8679 16.2058L20.0401 17.3781L20.0401 19.9745L20.0401 22.5768L20.2393 22.776C20.509 23.0457 20.7434 23.0457 21.013 22.776L21.2123 22.5768L21.2123 20.5664L21.2123 18.5562L22.5486 19.8866C23.8615 21.1936 23.8908 21.217 24.1252 21.217C24.4593 21.217 24.6645 21.0353 24.7113 20.7013L24.7465 20.4492L23.375 19.0719L22.0094 17.7003L23.1699 17.7003L24.3304 17.7003L24.5296 17.5011C24.7407 17.2902 24.7758 17.1084 24.6586 16.8505C24.5179 16.5458 24.4124 16.5282 22.5486 16.5282L20.8313 16.5282L19.3368 15.0336C17.6195 13.3163 17.7719 13.627 18.0239 12.3668C18.3052 10.9602 18.7389 9.91101 19.2606 9.39526C19.8349 8.81506 20.4973 8.8092 21.3998 9.35425C21.8394 9.61804 22.7948 10.5323 23.3047 11.1653C24.0901 12.144 25.0923 13.7383 25.7898 15.1273C26.0242 15.608 26.118 15.7252 26.2821 15.8073C26.6631 15.9889 27.1027 15.7018 27.0909 15.2798C27.0792 14.7816 25.2975 11.7749 24.2249 10.4326C23.2988 9.27808 22.2087 8.36377 21.3002 7.99451C20.9368 7.84204 20.8196 7.82446 20.2393 7.82446C19.6181 7.82446 19.5771 7.83032 19.1726 8.03552L18.7506 8.2406L18.0004 7.47876C16.7227 6.18335 16.7579 6.30652 16.7579 2.97742C16.7579 1.16052 16.7403 0.433716 16.6876 0.322388C16.5528 0.0292969 16.4121 0 14.9761 0L13.6515 0L13.464 0.169922ZM15.5857 3.35254C15.5857 5.84351 15.615 6.0603 16.0018 6.85742C16.2187 7.297 16.3535 7.46106 17.1096 8.23474L17.9711 9.11389L17.7191 9.58276C17.5784 9.8407 17.4554 10.0752 17.4436 10.1104C17.4261 10.1396 17.0392 9.79968 16.5762 9.34253C16.1132 8.88538 15.6384 8.46924 15.5271 8.41064C15.2868 8.28748 14.7476 8.2699 14.5307 8.37549C14.4486 8.4165 13.9856 8.85022 13.4933 9.33667C13.0009 9.82312 12.5907 10.21 12.5848 10.1982C12.5731 10.1807 12.4442 9.92859 12.2976 9.64148L12.028 9.11389L12.9189 8.20544C13.6691 7.43762 13.8449 7.22668 14.0266 6.85742C14.3842 6.12476 14.4135 5.8728 14.4135 3.38184L14.4135 1.17224L14.9996 1.17224L15.5857 1.17224L15.5857 3.35254ZM10.4514 9.16663C11.1489 9.5769 11.7291 10.9016 12.0691 12.8416L12.1804 13.5098L10.6741 15.016L9.16782 16.5282L7.45639 16.5282C6.34866 16.5282 5.69809 16.5516 5.60431 16.5927C5.52811 16.6278 5.42261 16.7274 5.36987 16.8212C5.21747 17.0791 5.2468 17.2783 5.46951 17.5011L5.66879 17.7003L6.83514 17.7003L7.99561 17.7063L6.72375 18.9487C6.02631 19.6345 5.41089 20.2617 5.35229 20.3496C5.07681 20.8068 5.63361 21.3928 6.10837 21.1526C6.17868 21.1174 6.81168 20.5195 7.51501 19.822L8.78687 18.5502L8.78687 20.5664L8.78687 22.5768L8.98615 22.776C9.20886 22.9988 9.40814 23.0281 9.66602 22.8757C9.7598 22.823 9.85944 22.7174 9.89459 22.6412C9.93564 22.5475 9.95908 21.6566 9.95908 19.9393L9.95908 17.3781L11.1313 16.2058L12.3035 15.0336L12.3035 18.9722C12.3035 21.6683 12.2801 23.0105 12.239 23.2214C12.0984 23.8838 11.6412 24.5403 11.0785 24.9036C10.7093 25.1439 10.3635 25.2611 9.85358 25.3197C9.43158 25.3666 9.40814 25.3783 8.47623 26.0114C6.54208 27.3242 4.52588 28.4379 3.58224 28.7191C3.05475 28.8774 2.69724 28.854 2.27524 28.6195C1.58948 28.2502 1.24954 27.459 1.18506 26.0817C0.938904 20.7306 5.58087 10.6437 8.992 9.13733C9.56052 8.88538 9.98837 8.89709 10.4514 9.16663Z" fill="#2AA7FF" fill-opacity="1.000000" fill-rule="nonzero"/>
	<path id="Vector" d="M27.3137 17.1964C26.792 17.4836 27.0265 18.2866 27.6302 18.2866C27.8412 18.2866 28.187 17.9408 28.187 17.7357C28.187 17.2668 27.7181 16.9738 27.3137 17.1964Z" fill="#2AA7FF" fill-opacity="1.000000" fill-rule="nonzero"/>
</svg>
