<svg width="30.377106" height="30.500183" viewBox="0 0 30.3771 30.5002" fill="none" xmlns="http://www.w3.org/2000/svg" xmlns:xlink="http://www.w3.org/1999/xlink">
	<defs/>
	<path id="Vector" d="M2.01199 0.967773C1.82376 1.3913 1.37671 1.88538 1.00024 2.09717C0.0120239 2.61481 0.0120239 2.94421 0.929657 3.39124C1.40024 3.60303 1.87082 4.07361 2.03552 4.47357C2.38846 5.29712 2.9061 5.36768 3.18845 4.61475C3.42374 4.02655 4.05902 3.41479 4.69431 3.203C5.30606 2.96771 5.16489 2.42657 4.41196 2.09717C4.01196 1.93243 3.54138 1.48541 3.32962 1.01483C2.85904 0.00305176 2.45905 0.00305176 2.01199 0.967773ZM3.16492 2.63831C3.25903 3.13245 2.57669 3.43829 2.22375 3.08539C2.03552 2.89716 2.03552 2.70892 2.27081 2.45007C2.64728 2.00305 3.0708 2.09717 3.16492 2.63831Z" fill="#FFB203" fill-opacity="1.000000" fill-rule="nonzero"/>
	<path id="Vector" d="M1.00024 2.09717C0.0120239 2.61481 0.0120239 2.94421 0.929657 3.39124C1.40024 3.60303 1.87082 4.07361 2.03552 4.47357C2.38846 5.29712 2.9061 5.36768 3.18845 4.61475C3.42374 4.02655 4.05902 3.41479 4.69431 3.203C5.30606 2.96771 5.16489 2.42657 4.41196 2.09717C4.01196 1.93243 3.54138 1.48541 3.32962 1.01483C2.85904 0.00305176 2.45905 0.00305176 2.01199 0.967773C1.82376 1.3913 1.37671 1.88538 1.00024 2.09717ZM2.22375 3.08539C2.03552 2.89716 2.03552 2.70892 2.27081 2.45007C2.64728 2.00305 3.0708 2.09717 3.16492 2.63831C3.25903 3.13245 2.57669 3.43829 2.22375 3.08539Z" stroke="#FFB203" stroke-opacity="1.000000" stroke-width="0.500000"/>
	<path id="Vector" d="M7.70602 3.79126C5.96487 4.45007 4.3649 6.07361 3.70609 7.81476C2.76492 10.3559 3.16492 13.697 4.88254 17.3911C5.54135 18.8264 6.10605 20.7322 6.85898 24.0969C7.47073 26.7792 8.10602 29.0615 8.36484 29.3909C9.21188 30.5673 11.2354 30.5203 12.0118 29.3438C12.2001 29.038 12.7412 26.5909 13.1883 23.8616C14.0589 18.6852 14.2 18.3322 15.353 18.3322C15.6353 18.3322 15.9883 18.4734 16.1294 18.6616C16.2941 18.8499 16.7882 21.2028 17.2353 23.9086C17.6823 26.5909 18.2 29.0144 18.3882 29.2968C19.1882 30.5203 21.1882 30.5673 22.0587 29.3909C22.3176 29.0615 22.9529 26.8027 23.5646 24.0969C24.3175 20.7322 24.8822 18.8264 25.541 17.3911C27.9175 12.2617 27.7528 8.02649 25.094 5.39124C23.1176 3.3913 20.247 2.77954 17.4471 3.7442C16.6941 4.00305 15.6824 4.21478 15.2118 4.21478C14.7412 4.21478 13.7295 4.00305 12.9765 3.7442C11.2354 3.13245 9.32953 3.15601 7.70602 3.79126ZM12.6236 4.68536C14.5765 5.27362 15.8235 5.27362 17.8941 4.66187C21.2588 3.65009 24.0587 4.77948 25.6116 7.74414C26.6704 9.8147 26.1057 14.5205 24.4352 17.3911C24.0117 18.1205 23.447 20.0969 22.6234 23.6263C21.5411 28.3792 21.3999 28.8027 20.8352 29.1321C20.2705 29.4379 20.1529 29.4379 19.6353 29.1085C19.1176 28.7556 19 28.3321 18.2941 24.0498C17.4471 19.0381 17.1647 18.0499 16.4353 17.6499C15.5883 17.2028 14.2942 17.344 13.6824 17.9557C13.0001 18.6381 13.0471 18.4499 12.153 23.9557C11.753 26.3321 11.3295 28.4733 11.2119 28.7086C10.8824 29.3203 10.106 29.485 9.4707 29.085C9.02365 28.7791 8.78836 27.9791 7.82367 23.7204C7.02368 20.191 6.48251 18.3322 6.03546 17.5087C4.62372 15.0146 3.87079 11.0853 4.3649 8.99121C5.04724 6.26184 7.4472 4.3089 10.2707 4.23834C10.7177 4.23834 11.7766 4.42657 12.6236 4.68536Z" fill="#FFB203" fill-opacity="1.000000" fill-rule="nonzero"/>
	<path id="Vector" d="M3.70609 7.81476C2.76492 10.3559 3.16492 13.697 4.88254 17.3911C5.54135 18.8264 6.10605 20.7322 6.85898 24.0969C7.47073 26.7792 8.10602 29.0615 8.36484 29.3909C9.21188 30.5673 11.2354 30.5203 12.0118 29.3438C12.2001 29.038 12.7412 26.5909 13.1883 23.8616C14.0589 18.6852 14.2 18.3322 15.353 18.3322C15.6353 18.3322 15.9883 18.4734 16.1294 18.6616C16.2941 18.8499 16.7882 21.2028 17.2353 23.9086C17.6823 26.5909 18.2 29.0144 18.3882 29.2968C19.1882 30.5203 21.1882 30.5673 22.0587 29.3909C22.3176 29.0615 22.9529 26.8027 23.5646 24.0969C24.3175 20.7322 24.8822 18.8264 25.541 17.3911C27.9175 12.2617 27.7528 8.02649 25.094 5.39124C23.1176 3.3913 20.247 2.77954 17.4471 3.7442C16.6941 4.00305 15.6824 4.21478 15.2118 4.21478C14.7412 4.21478 13.7295 4.00305 12.9765 3.7442C11.2354 3.13245 9.32953 3.15601 7.70602 3.79126C5.96487 4.45007 4.3649 6.07361 3.70609 7.81476ZM17.8941 4.66187C21.2588 3.65009 24.0587 4.77948 25.6116 7.74414C26.6704 9.8147 26.1057 14.5205 24.4352 17.3911C24.0117 18.1205 23.447 20.0969 22.6234 23.6263C21.5411 28.3792 21.3999 28.8027 20.8352 29.1321C20.2705 29.4379 20.1529 29.4379 19.6353 29.1085C19.1176 28.7556 19 28.3321 18.2941 24.0498C17.4471 19.0381 17.1647 18.0499 16.4353 17.6499C15.5883 17.2028 14.2942 17.344 13.6824 17.9557C13.0001 18.6381 13.0471 18.4499 12.153 23.9557C11.753 26.3321 11.3295 28.4733 11.2119 28.7086C10.8824 29.3203 10.106 29.485 9.4707 29.085C9.02365 28.7791 8.78836 27.9791 7.82367 23.7204C7.02368 20.191 6.48251 18.3322 6.03546 17.5087C4.62372 15.0146 3.87079 11.0853 4.3649 8.99121C5.04724 6.26184 7.4472 4.3089 10.2707 4.23834C10.7177 4.23834 11.7766 4.42657 12.6236 4.68536C14.5765 5.27362 15.8235 5.27362 17.8941 4.66187Z" stroke="#FFB203" stroke-opacity="1.000000" stroke-width="0.500000"/>
	<path id="Vector" d="M7.91779 6.49707C6.85898 6.89709 5.80017 8.45001 5.80017 9.62646C5.80017 10.1676 5.91782 10.3323 6.24722 10.3323C6.57663 10.3323 6.7178 10.097 6.83545 9.41467C6.95309 8.56763 8.03543 7.27356 8.62366 7.27356C8.71777 7.27356 8.76483 7.06177 8.69424 6.80298C8.55307 6.30884 8.50601 6.28534 7.91779 6.49707Z" fill="#FFB203" fill-opacity="1.000000" fill-rule="nonzero"/>
	<path id="Vector" d="M5.80017 9.62646C5.80017 10.1677 5.91782 10.3323 6.24722 10.3323C6.57663 10.3323 6.7178 10.097 6.83545 9.41473C6.95309 8.56763 8.03543 7.27356 8.62366 7.27356C8.71777 7.27356 8.76483 7.06177 8.69424 6.80298C8.55307 6.30884 8.50601 6.28534 7.91779 6.49707C6.85898 6.89709 5.80017 8.45001 5.80017 9.62646Z" stroke="#FFB203" stroke-opacity="1.000000" stroke-width="0.500000"/>
	<path id="Vector" d="M9.80011 6.80292C9.80011 7.10883 9.96481 7.2735 10.2707 7.2735C10.5766 7.2735 10.7413 7.10883 10.7413 6.80292C10.7413 6.49701 10.5766 6.33234 10.2707 6.33234C9.96481 6.33234 9.80011 6.49701 9.80011 6.80292Z" fill="#FFB203" fill-opacity="1.000000" fill-rule="nonzero"/>
	<path id="Vector" d="M10.2707 7.2735C10.5766 7.2735 10.7413 7.10883 10.7413 6.80292C10.7413 6.49701 10.5766 6.33234 10.2707 6.33234C9.96481 6.33234 9.80011 6.49701 9.80011 6.80292C9.80011 7.10883 9.96481 7.2735 10.2707 7.2735Z" stroke="#FFB203" stroke-opacity="1.000000" stroke-width="0.500000"/>
	<path id="Vector" d="M27.2116 21.9792C27.0939 22.3087 26.5998 22.8027 26.1528 23.0616C25.141 23.6733 25.1175 24.0733 26.0587 24.4733C26.5292 24.6616 26.9292 25.0615 27.141 25.5557C27.5175 26.4733 27.8469 26.4733 28.388 25.5086C28.5998 25.1321 29.0704 24.6616 29.4704 24.4498C30.3174 23.9792 30.3409 23.5792 29.5645 23.2028C29.2351 23.038 28.7645 22.5674 28.5057 22.1675C27.941 21.2498 27.5175 21.2028 27.2116 21.9792ZM28.1292 24.1204C27.7998 24.4498 27.7292 24.4498 27.4469 24.1204C27.2116 23.8145 27.2116 23.6733 27.4469 23.3674C27.7292 23.038 27.7998 23.038 28.1292 23.3674C28.4586 23.7204 28.4586 23.7675 28.1292 24.1204Z" fill="#FFB203" fill-opacity="1.000000" fill-rule="nonzero"/>
	<path id="Vector" d="M26.1528 23.0616C25.141 23.6733 25.1175 24.0733 26.0587 24.4733C26.5292 24.6616 26.9292 25.0615 27.141 25.5557C27.5175 26.4733 27.8469 26.4733 28.388 25.5086C28.5998 25.1321 29.0704 24.6616 29.4704 24.4498C30.3174 23.9792 30.3409 23.5792 29.5645 23.2028C29.2351 23.038 28.7645 22.5674 28.5057 22.1675C27.941 21.2498 27.5175 21.2028 27.2116 21.9792C27.0939 22.3087 26.5998 22.8027 26.1528 23.0616ZM27.4469 24.1204C27.2116 23.8145 27.2116 23.6733 27.4469 23.3674C27.7292 23.038 27.7998 23.038 28.1292 23.3674C28.4586 23.7204 28.4586 23.7675 28.1292 24.1204C27.7998 24.4498 27.7292 24.4498 27.4469 24.1204Z" stroke="#FFB203" stroke-opacity="1.000000" stroke-width="0.500000"/>
</svg>
