<svg width="81.312469" height="69.940979" viewBox="0 0 81.3125 69.941" fill="none" xmlns="http://www.w3.org/2000/svg" xmlns:xlink="http://www.w3.org/1999/xlink">
	<defs/>
	<path id="Vector" d="M48.901 29.0515C48.8823 27.6976 48.7049 26.332 48.3501 24.9572C47.1059 20.1322 41.555 17.0346 35.647 16.3063C29.7412 15.578 23.5997 17.2354 21.2328 21.4324C19.8789 23.832 19.6922 25.9002 20.2454 27.6439C20.7963 29.3783 22.1034 30.8162 23.8774 31.9366C28.8238 35.0576 37.4864 35.6948 41.4383 34.39C43.2661 33.7854 45.0517 33.0571 46.7908 32.2238C45.7964 37.679 42.0918 42.8471 37.1478 47.504C26.4031 57.6254 9.72942 65.3075 0.649075 68.132C0.161209 68.2837 -0.109589 68.8019 0.0421371 69.2898C0.193867 69.7776 0.712067 70.0508 1.19993 69.899C10.46 67.0186 27.4583 59.173 38.4154 48.8509C44.076 43.5194 48.1096 37.5179 48.7983 31.2084C61.5948 24.3713 72.1037 11.9669 81.0884 1.52802C81.4221 1.14288 81.3778 0.556946 80.9903 0.223145C80.6028 -0.108337 80.0192 -0.0663452 79.6854 0.321167C71.0672 10.3329 61.0649 22.2424 48.901 29.0515ZM47.0406 30.0436C47.1106 28.5216 46.9612 26.9763 46.5573 25.417C45.4812 21.241 40.5349 18.7714 35.4205 18.1411C32.2856 17.7559 29.062 18.0734 26.5339 19.2032C24.9443 19.9128 23.6347 20.9422 22.8457 22.3428C21.8093 24.1799 21.5852 25.7509 22.01 27.0837C22.4348 28.4259 23.4901 29.5043 24.8649 30.3704C29.3724 33.2158 37.2599 33.8204 40.857 32.6323C42.9789 31.932 45.0378 31.059 47.0406 30.0436Z" fill="#FFB203" fill-opacity="1.000000" fill-rule="evenodd"/>
</svg>
