<svg width="80.307312" height="45.346680" viewBox="0 0 80.3073 45.3467" fill="none" xmlns="http://www.w3.org/2000/svg" xmlns:xlink="http://www.w3.org/1999/xlink">
	<defs/>
	<path id="Vector" d="M73.2729 17.967C73.2581 17.6537 73.261 17.3487 73.2759 17.0624C73.3263 16.2013 74.1266 16.2042 74.1888 16.2054C74.3193 16.2084 74.9003 16.2451 75.0396 16.9165C75.0485 16.9565 75.0692 17.2464 75.0752 17.3582C75.087 17.5965 75.0929 17.8307 75.0603 18.0658C75.09 18.4644 75.1552 18.8747 75.2797 19.2606C75.4605 19.8304 75.754 20.3562 76.2846 20.6363C77.2331 21.1402 78.481 21.1198 79.5244 21.2478C79.9602 21.3012 80.2922 21.6646 80.307 22.1033C80.3188 22.5423 80.0106 22.9253 79.5778 23.005C78.2735 23.2463 76.7736 24.4323 75.8192 25.3873C75.5257 25.6808 75.1967 26.3797 74.8291 26.8273C74.5327 27.186 74.2037 27.4264 73.8924 27.5219C73.7709 27.5589 73.098 27.6941 72.7957 26.9975C72.7127 26.8018 72.4192 25.7774 72.3925 25.6606C72.2325 24.9913 72.0042 24.3934 71.5566 23.8611C71.1683 23.3995 70.697 22.9964 70.1308 22.7729C69.9026 22.6828 69.6655 22.6143 69.4283 22.5438C69.3453 22.5337 69.1112 22.5041 69.0282 22.4759C68.8592 22.4196 68.7347 22.3312 68.6458 22.2432C68.4768 22.0766 68.3908 21.8777 68.376 21.6512C68.3642 21.5019 68.3849 21.3246 68.4916 21.1281C68.5717 20.9885 68.7525 20.7783 69.0785 20.6419C69.4194 20.4994 70.1516 20.3639 70.282 20.3286C71.1891 20.0844 72.0783 19.713 72.7749 19.0691C73.1217 18.7472 73.2018 18.4001 73.2729 17.967ZM73.8539 20.4878C74.2037 21.2129 74.7254 21.8232 75.4516 22.2076C75.751 22.3674 76.077 22.4886 76.415 22.5829C75.7184 23.0678 75.0722 23.6192 74.5594 24.1302C74.3934 24.2965 74.2126 24.5656 74.0199 24.8612C73.7946 24.0721 73.4626 23.3634 72.9172 22.7148C72.5941 22.3324 72.2295 21.9829 71.8234 21.6916C72.5585 21.4005 73.2551 21.011 73.8539 20.4878Z" fill="#4CD080" fill-opacity="1.000000" fill-rule="evenodd"/>
	<path id="Vector" d="M54.7437 43.1543C61.4903 43.3173 68.385 42.9883 74.8352 45.2944C75.2976 45.4604 75.8074 45.2174 75.9734 44.7579C76.1394 44.2955 75.8964 43.7856 75.434 43.6197C68.803 41.2483 61.7215 41.5417 54.7882 41.3758C54.2961 41.3639 53.8901 41.7522 53.8782 42.2413C53.8663 42.7334 54.2546 43.1395 54.7437 43.1543Z" fill="#4CD080" fill-opacity="1.000000" fill-rule="evenodd"/>
	<path id="Vector" d="M54.2427 33.2984C56.3324 31.3762 58.6119 29.9347 61.3686 29.2209C61.8429 29.0978 62.1274 28.6123 62.0059 28.1371C61.8814 27.662 61.3983 27.3763 60.921 27.4993C57.8738 28.288 55.3483 29.865 53.0392 31.9891C52.6775 32.3214 52.6538 32.8843 52.9858 33.2457C53.3178 33.607 53.881 33.6307 54.2427 33.2984Z" fill="#4CD080" fill-opacity="1.000000" fill-rule="evenodd"/>
	<path id="Vector" d="M48.4209 12.0597C49.3783 8.78271 51.2606 6.21899 54.1448 4.36786C54.5568 4.10284 54.6783 3.55212 54.4115 3.13916C54.1477 2.72595 53.5964 2.60596 53.1843 2.87122C49.9237 4.96307 47.7954 7.85822 46.7135 11.5614C46.5771 12.0324 46.8469 12.5265 47.3182 12.6641C47.7895 12.8016 48.2845 12.5307 48.4209 12.0597Z" fill="#4CD080" fill-opacity="1.000000" fill-rule="evenodd"/>
	<path id="Vector" d="M14.8009 7.5025C14.2436 8.1647 13.7456 8.87613 13.3188 9.63199C13.0698 10.068 12.6311 11.0836 12.7052 11.819C12.7615 12.37 13.0223 12.8182 13.544 13.0826C14.377 13.5059 15.0439 13.454 15.5568 13.1982C16.0488 12.9534 16.4401 12.4761 16.6831 11.8314C17.1159 10.6804 17.0655 8.94043 16.8462 7.8923C17.439 7.2879 18.0882 6.73834 18.7789 6.24805C24.0907 2.4826 31.8836 3.88947 37.8802 9.51965C39.9819 11.492 40.9808 15.6386 41.5055 20.1078C42.3325 27.1205 41.8612 34.9528 41.796 37.2474C41.7812 37.8512 41.8464 38.2093 41.876 38.2807C42.042 38.6752 42.3384 38.779 42.543 38.8175C42.8305 38.8708 43.0587 38.8145 43.2455 38.7167C43.4945 38.5863 43.702 38.3575 43.7968 38.0012C43.8443 37.8192 43.8591 37.5663 43.8531 37.2963C43.8472 37.1365 43.8087 36.9622 43.8413 36.8478C44.0725 36.0436 44.3511 35.2578 44.6209 34.4669C45.5279 31.8066 46.7047 29.3137 48.006 26.8235C52.1529 18.9061 56.1546 10.5378 62.9516 4.50568C63.3191 4.17993 63.3547 3.61761 63.0287 3.25037C62.7026 2.88342 62.1394 2.84991 61.7718 3.17566C54.8119 9.35129 50.6738 17.8926 46.432 25.9988C45.4449 27.8823 44.5319 29.7684 43.7464 31.7227C43.8176 27.3105 43.7109 21.3314 42.7297 16.3966C42.0331 12.8775 40.8682 9.88248 39.0986 8.22311C32.4083 1.94196 23.6757 0.596191 17.7503 4.79706C17.1663 5.2103 16.612 5.66144 16.0874 6.14816C12.9394 0.650757 6.34991 -1.53027 0.519302 1.13068C0.0746689 1.33459 -0.123928 1.86255 0.0806046 2.30896C0.285133 2.75531 0.812756 2.95245 1.25739 2.74854C6.39734 0.403259 12.219 2.47198 14.8009 7.5025ZM15.2574 9.86438C15.121 10.0746 14.9906 10.2892 14.8661 10.5082C14.7772 10.6617 14.6438 10.9291 14.5519 11.2149C14.5222 11.3142 14.4985 11.4704 14.4867 11.5658C14.5964 11.618 14.6853 11.6453 14.7653 11.6059C14.8957 11.5403 14.952 11.377 15.0172 11.2042C15.1625 10.8192 15.2366 10.3398 15.2574 9.86438Z" fill="#4CD080" fill-opacity="1.000000" fill-rule="evenodd"/>
</svg>
