<svg width="144.804657" height="30.058594" viewBox="0 0 144.805 30.0586" fill="none" xmlns="http://www.w3.org/2000/svg" xmlns:xlink="http://www.w3.org/1999/xlink">
	<desc>
			Created with Pixso.
	</desc>
	<defs/>
	<path id="Medikel" d="M79.8242 28.418L73.0664 30.0586C72.6758 29.668 72.4349 28.8867 72.3438 27.7148Q70.0853 29.5784 67.6097 29.9351Q67.0238 30.0195 66.4258 30.0195C63.8737 30.0195 61.8294 29.134 60.293 27.3633Q58.0078 24.707 58.0078 20C58.0078 16.8489 58.8411 14.3098 60.5078 12.3828C62.1354 10.4426 64.1797 9.47266 66.6406 9.47266C68.7891 9.52466 70.6901 10.1758 72.3438 11.4258L72.3438 4.72656Q72.3438 2.74658 71.4182 2.10791Q70.7643 1.65674 69.6484 1.875L69.6484 1.17188L76.9922 0L76.9922 24.8828C77.0052 27.1094 77.9492 28.0664 79.8242 27.7539L79.8242 28.418ZM92.3828 1.17188L99.8828 0.0390625L99.8828 20.4688L106.875 13.5742C107.765 12.6953 108.21 12.011 108.21 11.5215C108.21 11.4309 108.195 11.3469 108.164 11.2695Q108.11 11.1292 108.021 11.0166Q107.626 10.5186 106.543 10.5664L106.543 9.90234L115.332 9.90234L115.332 10.5664C112.493 10.5664 110.15 11.543 108.301 13.4961L105.898 15.8984L111.992 25.8398C113.307 28.0273 114.714 29.0559 116.211 28.9258L116.211 29.5898L105.586 29.5898L105.586 28.9258C106.302 28.8477 106.816 28.5481 107.129 28.0273C107.227 27.877 107.276 27.6934 107.276 27.4766Q107.276 26.6763 106.387 25.2734L102.48 19.2383L99.8828 21.7383L99.8828 24.7656C99.8958 27.5129 100.84 28.8997 102.715 28.9258L102.715 29.5898L92.3828 29.5898L92.3828 28.9258C94.2448 28.8867 95.1758 27.5 95.1758 24.7656L95.1758 4.72656C95.1758 2.47388 94.2448 1.51685 92.3828 1.85547L92.3828 1.17188ZM142.07 0.0390625L142.07 24.7656C142.07 27.5 142.982 28.8867 144.805 28.9258L144.805 29.5898L134.531 29.5898L134.531 28.9258Q135.421 28.9072 136.029 28.4841Q137.344 27.5696 137.344 24.7656L137.344 4.72656Q137.345 4.65894 137.345 4.59302Q137.345 2.80786 136.488 2.16528Q135.792 1.64331 134.531 1.875L134.531 1.17188L142.07 0.0390625ZM87.1173 0.856201L87.1174 0.856201Q87.5676 1.06567 87.9297 1.46484C88.4765 1.95972 88.75 2.60425 88.75 3.39844C88.75 4.19263 88.4831 4.85669 87.9492 5.39062Q87.5969 5.75171 87.169 5.94995Q86.6482 6.19141 86.0156 6.19141C85.2604 6.19141 84.6094 5.92456 84.0625 5.39062C83.5156 4.85669 83.2422 4.19263 83.2422 3.39844C83.2422 2.60425 83.5156 1.94653 84.0625 1.42578C84.6094 0.891846 85.2604 0.625 86.0156 0.625Q86.6202 0.625 87.1173 0.856201ZM0 1.95312L0 1.17188L9.29688 1.15234C9.32294 1.77734 9.47919 2.41528 9.76562 3.06641L18.8672 23.5742L28.0078 1.15234L36.1523 1.17188L36.1523 1.95312Q34.3652 1.95312 33.4717 2.84668Q32.5781 3.74023 32.5781 5.52734L32.5781 25.2344Q32.5781 27.041 33.4814 27.9395Q34.375 28.8281 36.1523 28.8281L36.1523 29.5898L24.0625 29.5898L24.0625 28.8281Q25.8889 28.8184 26.7921 27.9001Q27.6758 27.002 27.6758 25.2344L27.6758 4.25781L17.2852 29.5508L15.8594 29.5508L4.45312 4.25781L4.45312 25.2344Q4.453 25.2544 4.453 25.2744Q4.453 27.1399 5.38568 28.0576Q6.2688 28.9265 7.98828 28.9453L7.98828 29.5898L0 29.5898L0 28.9062Q1.73895 28.9062 2.63184 28.0371Q3.57422 27.1199 3.57422 25.2344L3.57422 5.52734Q3.57422 3.74023 2.68066 2.84668Q1.78711 1.95312 0 1.95312ZM42.701 10.3408Q44.6346 9.35547 47.0703 9.35547Q50.4015 9.35547 52.6073 10.9312Q53.2338 11.3784 53.7695 11.9531Q54.0894 12.2908 54.3709 12.6577L54.3711 12.658Q56.2559 15.1145 56.4258 18.8867L42.3047 18.8867Q42.2752 19.322 42.2752 19.7432Q42.2752 22.0964 43.1959 24.0059Q43.5296 24.6982 43.9844 25.332C45.2734 27.116 46.8815 27.9817 48.8086 27.9297C50.4753 27.8906 51.875 27.2981 53.0078 26.1523C54.1406 25.0066 54.987 23.4961 55.5469 21.6211L56.1719 21.6211Q55.4769 25.0283 53.4431 27.1555Q53.1335 27.4792 52.793 27.7734C51.0872 29.2449 49.056 29.9805 46.6992 29.9805Q44.9251 29.9805 43.3887 29.3762Q41.5422 28.6499 40.0391 27.0508C38.2422 25.1238 37.3438 22.7278 37.3438 19.8633C37.3438 16.8945 38.2422 14.4141 40.0391 12.4219Q41.2234 11.0938 42.701 10.3408ZM119.615 10.3408Q121.549 9.35547 123.984 9.35547C126.836 9.35547 129.069 10.2214 130.684 11.9531C132.324 13.6848 133.21 15.9961 133.34 18.8867L119.219 18.8867C119.199 19.177 119.189 19.4624 119.189 19.7432C119.189 21.8809 119.759 23.7437 120.898 25.332C122.187 27.116 123.796 27.9817 125.723 27.9297C127.389 27.8906 128.789 27.2981 129.922 26.1523C131.055 25.0066 131.901 23.4961 132.461 21.6211L133.086 21.6211C132.552 24.2383 131.426 26.2891 129.707 27.7734C128.001 29.2449 125.97 29.9805 123.613 29.9805C121.009 29.9805 118.789 29.0039 116.953 27.0508C115.156 25.1238 114.258 22.7278 114.258 19.8633C114.258 16.8945 115.156 14.4141 116.953 12.4219Q118.137 11.0938 119.615 10.3408L119.615 10.3408ZM83.7306 13.939C83.7306 11.823 82.8256 10.9268 81.0156 11.25L81.0156 10.5664L88.4961 9.47266L88.4961 24.9219C88.5091 27.4739 89.4141 28.802 91.2109 28.9062L91.2109 29.5898L81.0156 29.5898L81.0156 28.9062C82.8256 28.8157 83.7306 27.5059 83.7306 24.9763C83.7306 24.9583 83.7305 24.9399 83.7305 24.9219L83.7305 13.9844C83.7305 13.9692 83.7306 13.9539 83.7306 13.939ZM49.6094 11.6406C48.8802 10.6641 48.0013 10.1953 46.9727 10.2344C46.1914 10.2605 45.4883 10.5469 44.8633 11.0938Q43.9648 11.8945 43.457 13.1445Q42.9492 14.3555 42.6953 15.5859C42.526 16.3801 42.4153 17.1614 42.3633 17.9297L51.4062 17.9297C51.4113 17.8022 51.4139 17.6736 51.4139 17.5439C51.4139 16.6785 51.3007 15.7588 51.0742 14.7852C50.8398 13.6523 50.3516 12.6042 49.6094 11.6406ZM124.801 10.3445Q124.365 10.2163 123.887 10.2344C123.105 10.2605 122.402 10.5469 121.777 11.0938C121.178 11.6277 120.71 12.3113 120.371 13.1445C120.033 13.9519 119.779 14.7656 119.609 15.5859C119.44 16.3801 119.329 17.1614 119.277 17.9297L128.32 17.9297C128.325 17.8022 128.328 17.6736 128.328 17.5439C128.328 16.6785 128.215 15.7588 127.988 14.7852C127.754 13.6523 127.266 12.6042 126.523 11.6406Q125.769 10.6301 124.801 10.3445ZM70.4688 11.5625C69.6484 11.0938 68.8216 10.8594 67.9883 10.8594Q67.015 10.8518 66.2045 11.2112Q64.9332 11.7751 64.0625 13.2422C63.151 14.8176 62.6953 16.9207 62.6953 19.5508C62.6951 19.5835 62.6951 19.6162 62.6951 19.6489C62.6951 22.261 63.2095 24.4224 64.2383 26.1328C65.306 27.8906 66.6211 28.7305 68.1836 28.6523C69.1732 28.5742 70.1172 28.0925 71.0156 27.207C71.901 26.2434 72.3438 25.0325 72.3438 23.5742L72.3438 13.1055C71.901 12.5325 71.276 12.0183 70.4688 11.5625Z" fill="#201F50" fill-opacity="1.000000" fill-rule="evenodd"/>
</svg>
