<svg width="45.714424" height="40.000000" viewBox="0 0 45.7144 40" fill="none" xmlns="http://www.w3.org/2000/svg" xmlns:xlink="http://www.w3.org/1999/xlink">
	
	<defs/>
	<path id="Vector" d="M12.5271 1.13257C8.02592 3.45471 4.16776 7.38428 2.34586 11.5282C0.666842 15.3149 0.309606 18.0299 0.0952635 28.6755C-0.0833549 37.8208 -0.0476313 38.6425 0.523948 39.2855C1.13125 39.9642 1.6671 40 9.49059 40C17.6713 40 17.8142 40 18.3501 39.2141C18.8145 38.5353 18.9216 37.0707 18.9216 30.4976C18.9216 20.7449 19.2432 21.3165 13.5988 21.1379L9.77638 20.995L10.0622 18.6372C10.4194 15.7437 12.027 12.2784 13.7417 10.7781C14.4205 10.1708 15.7422 9.24194 16.6711 8.70605C20.0291 6.77698 20.1362 6.52686 18.743 3.31177C17.064 -0.439209 16.1709 -0.760742 12.5271 1.13257Z" fill="#6366F1" fill-opacity="1.000000" fill-rule="nonzero"/>
	<path id="Vector" d="M38.784 1.09692C34.0685 3.52612 30.4961 7.09851 28.4956 11.2782C26.7452 14.9934 26.3879 17.7799 26.1736 28.6755C25.995 37.8208 26.0307 38.6425 26.6023 39.2855C27.2096 39.9642 27.7811 40 35.5332 40C43.1066 40 43.8568 39.9286 44.3927 39.3569C44.9285 38.7854 45 37.6422 45 30.6404C45 20.7092 45.3215 21.3165 39.6057 21.1379L35.7118 20.995L35.9261 19.5303C36.7121 13.9574 38.534 11.0638 42.6779 8.74182C45.0357 7.42004 45.7144 6.81274 45.7144 6.02673C45.7144 5.34802 43.8925 1.34692 43.2138 0.525391C42.535 -0.296265 41.1061 -0.117676 38.784 1.09692Z" fill="#6366F1" fill-opacity="1.000000" fill-rule="nonzero"/>
</svg>
