<svg width="32.281479" height="34.875488" viewBox="0 0 32.2815 34.8755" fill="none" xmlns="http://www.w3.org/2000/svg" xmlns:xlink="http://www.w3.org/1999/xlink">

	<defs/>
	<path id="Vector" d="M12.7593 6.98172C12.6643 6.4184 12.5928 5.86148 12.5466 5.3045C12.477 4.46899 12.52 3.62714 12.4953 2.79166C12.4846 2.43719 12.4421 1.51309 12.4592 1.38019C12.6143 0.221893 13.5492 0.0446472 13.8226 0.0130005C13.9549 -0.00598145 15.3132 -0.157806 15.6062 1.3486C15.9657 3.19046 16.0809 5.04495 15.9537 6.86151C16.2506 8.40588 16.7582 9.94391 17.4285 11.3364C20.0957 16.8747 25.1782 17.4127 30.6849 17.362C31.5317 17.3494 32.235 18.014 32.2793 18.8558C32.3236 19.7039 31.6932 20.4381 30.8501 20.5141C27.7721 20.8116 22.311 23.2801 20.4229 25.8498C20.028 26.3878 19.7982 27.6854 19.4944 28.9576C19.0703 30.7235 18.5659 32.4704 18.0007 33.2047C17.9159 33.3186 16.8848 34.4832 16.5772 34.6541C15.8379 35.0592 15.2461 34.825 14.91 34.6098C14.5739 34.3946 14.1935 33.9705 14.0416 33.2679C13.8827 32.5337 14.0169 31.0273 13.9922 30.7045C13.9024 29.5335 13.6682 27.236 13.1903 25.2612C12.9327 24.1978 12.658 23.2168 12.2035 22.7294C10.5212 20.9255 7.83115 21.1914 5.56584 21.4888C5.3057 21.5205 5.04557 21.5585 4.78606 21.5901C3.86386 21.8623 2.88467 22.0648 1.84981 22.1851C0.287064 22.3686 0.0301056 20.9318 0.0161819 20.8369C-0.0129318 20.628 -0.121178 19.552 1.05673 19.1216C1.18522 19.0773 2.13338 18.8684 2.49859 18.7862C3.00748 18.6722 3.52205 18.5836 4.03854 18.5014C9.37363 16.843 12.2713 12.1845 12.7593 6.98172ZM14.5904 12.7353C16.6044 16.9 19.6609 18.9128 23.2839 19.8242L23.2832 19.8242C21.0211 21.0078 18.9634 22.4889 17.8728 23.9763C17.4589 24.5397 17.0791 25.6726 16.7367 26.9448C16.5512 25.7612 16.3006 24.5016 15.9696 23.4256C15.593 22.1977 15.0859 21.1787 14.5201 20.5711C13.4276 19.4002 12.0567 18.7482 10.5825 18.4254C12.3472 16.862 13.6853 14.9126 14.5904 12.7353Z" fill="#4563FF" fill-opacity="0.350000" fill-rule="evenodd"/>
</svg>
