<svg width="128.000000" height="31.000000" viewBox="0 0 128 31" fill="none" xmlns="http://www.w3.org/2000/svg" xmlns:xlink="http://www.w3.org/1999/xlink">
	<defs/>
	<path id="Vector 218 (Stroke)" d="M59.9056 3.92798C56.5764 4.96698 53.2933 6.17908 49.9736 7.41211C40.7977 10.8203 19.7219 19.033 7.80127 23.6782C5.56104 24.5511 3.64417 25.2982 2.19031 25.8635C1.36505 26.1845 0.434082 25.7802 0.110901 24.9606C-0.21228 24.1409 0.194824 23.2162 1.02008 22.8953C2.46826 22.3321 4.37988 21.5872 6.61554 20.7159C18.5298 16.0732 39.6455 7.84485 48.8494 4.42633C52.2659 3.15735 55.7333 1.87646 59.2709 0.785278C59.465 0.725403 59.6622 0.654968 59.9012 0.569641C59.9449 0.554016 59.9901 0.537903 60.0368 0.52124C60.3203 0.420349 60.6556 0.303345 61.0049 0.208557C61.6901 0.022522 62.6184 -0.134094 63.5964 0.177002C64.4645 0.453186 64.6657 1.22528 64.7007 1.49445C64.7359 1.76562 64.6907 1.97864 64.6779 2.03845C64.645 2.1922 64.5951 2.31146 64.5808 2.34546L64.5803 2.34662C64.5408 2.44128 64.4948 2.53015 64.465 2.58636C64.3977 2.71356 64.3047 2.87598 64.1996 3.05481C63.9852 3.41943 63.6753 3.92841 63.3044 4.52856C62.5605 5.73218 61.5493 7.33832 60.5149 8.96948C58.4551 12.2175 56.2663 15.6226 55.9082 16.1482C55.6031 16.5959 55.1394 17.1976 54.6416 17.8433C54.5317 17.986 54.42 18.1308 54.3081 18.2766C53.6666 19.112 52.9655 20.041 52.3301 20.9823C51.6894 21.9315 51.1508 22.842 50.8112 23.6375C50.6182 24.0897 50.5214 24.4321 50.4791 24.6794C50.6606 24.6934 50.9025 24.6971 51.2131 24.6802C52.3691 24.6171 53.9547 24.3029 55.649 23.8709C58.3292 23.1876 60.9244 22.3115 62.1871 21.8853C62.5314 21.769 62.7766 21.6862 62.8975 21.6499C74.1332 18.2743 85.3958 14.9831 97.1279 13.0696C97.5896 12.9943 98.2299 12.8646 98.9971 12.7092C101.462 12.2099 105.237 11.4453 108.611 11.366C110.836 11.3138 113.174 11.5389 115.018 12.4904C115.967 12.98 116.811 13.6755 117.415 14.637C118.02 15.6 118.327 16.7376 118.345 18.0208C118.35 18.4142 118.276 18.8842 118.199 19.2937C118.117 19.7368 118.004 20.2555 117.883 20.7974C117.857 20.9117 117.832 21.0276 117.805 21.1447C117.578 22.1597 117.33 23.2715 117.147 24.3521C116.939 25.5833 116.844 26.6257 116.917 27.3435C116.937 27.5325 116.962 27.6599 116.984 27.7426C118.058 27.9161 119.452 27.7559 121.076 27.4103C121.855 27.2448 122.636 27.049 123.419 26.8525L123.627 26.8004C124.464 26.5908 125.315 26.3805 126.099 26.2346C126.97 26.0723 127.809 26.6422 127.972 27.5074C128.136 28.3726 127.562 29.2054 126.691 29.3677C126.019 29.4927 125.261 29.6786 124.412 29.8914C124.341 29.9091 124.27 29.9271 124.198 29.9451C123.424 30.1392 122.587 30.349 121.748 30.5274C119.959 30.9078 117.902 31.208 116.081 30.8162C114.274 30.4272 113.83 28.6993 113.724 27.6657C113.605 26.4996 113.765 25.1039 113.982 23.8242C114.179 22.6561 114.447 21.4607 114.672 20.4555C114.698 20.3371 114.724 20.2213 114.749 20.1086C114.871 19.5627 114.973 19.0957 115.043 18.7154C115.078 18.5264 115.103 18.3729 115.118 18.252C115.126 18.1923 115.131 18.1461 115.133 18.1118C115.136 18.0763 115.135 18.0623 115.135 18.0651C115.124 17.2699 114.941 16.7204 114.692 16.3248C114.443 15.9277 114.07 15.5933 113.538 15.3192C112.422 14.7429 110.743 14.5046 108.687 14.5529C105.637 14.6245 102.386 15.2817 99.9281 15.7787C99.0527 15.9558 98.2776 16.1125 97.6479 16.2152C86.149 18.0906 75.0718 21.3226 63.8267 24.701C63.827 24.701 63.8254 24.7015 63.8217 24.7026L63.8063 24.7075L63.7538 24.7245C63.7099 24.739 63.6537 24.7578 63.584 24.7812C63.5104 24.8061 63.4281 24.8339 63.3348 24.8655C63.2476 24.895 63.1509 24.9277 63.0425 24.9642C62.6022 25.1128 62.0156 25.3091 61.3325 25.5295C59.9698 25.9693 58.2101 26.509 56.447 26.9585C54.7067 27.4022 52.8716 27.7822 51.3892 27.8631C50.6631 27.9027 49.8819 27.8804 49.2003 27.6761C48.5038 27.4675 47.5946 26.9519 47.3368 25.8334C47.0638 24.6488 47.4251 23.4031 47.8563 22.3931C48.311 21.3281 48.9767 20.2257 49.6642 19.2072C50.3572 18.1807 51.1081 17.1873 51.756 16.3434C51.8837 16.1772 52.0059 16.0187 52.1221 15.8679C52.6163 15.2263 53.0029 14.7245 53.2501 14.3616C53.5711 13.8906 55.7252 10.5409 57.7991 7.27057C58.547 6.09137 59.2795 4.93005 59.9056 3.92798ZM117.037 27.8763C117.036 27.879 117.027 27.8679 117.014 27.8354C117.032 27.8575 117.038 27.8737 117.037 27.8763Z" fill="#A089E5" fill-opacity="1.000000" fill-rule="evenodd"/>
</svg>
