<svg width="13.984985" height="15.000488" viewBox="0 0 13.985 15.0005" fill="none" xmlns="http://www.w3.org/2000/svg" xmlns:xlink="http://www.w3.org/1999/xlink">
	<defs/>
	<path id="Stroke 1" d="M6.99213 1.51611C11.8616 1.51611 13.485 3.13892 13.485 8.0083C13.485 12.8777 11.8616 14.5005 6.99213 14.5005C2.12341 14.5005 0.5 12.8777 0.5 8.0083C0.5 3.13892 2.12341 1.51611 6.99213 1.51611Z" stroke="#6366F1" stroke-opacity="1.000000" stroke-width="1.000000" stroke-linejoin="round"/>
	<path id="Stroke 3" d="M0.692749 5.5918L13.299 5.5918" stroke="#6366F1" stroke-opacity="1.000000" stroke-width="1.000000" stroke-linejoin="round" stroke-linecap="round"/>
	<path id="Stroke 5" d="M10.0756 8.34814L10.0819 8.34814" stroke="#6366F1" stroke-opacity="1.000000" stroke-width="1.000000" stroke-linejoin="round" stroke-linecap="round"/>
	<path id="Stroke 7" d="M6.99579 8.34814L7.00208 8.34814" stroke="#6366F1" stroke-opacity="1.000000" stroke-width="1.000000" stroke-linejoin="round" stroke-linecap="round"/>
	<path id="Stroke 9" d="M3.91028 8.34814L3.91656 8.34814" stroke="#6366F1" stroke-opacity="1.000000" stroke-width="1.000000" stroke-linejoin="round" stroke-linecap="round"/>
	<path id="Stroke 11" d="M10.0756 11.0449L10.0819 11.0449" stroke="#6366F1" stroke-opacity="1.000000" stroke-width="1.000000" stroke-linejoin="round" stroke-linecap="round"/>
	<path id="Stroke 13" d="M6.99579 11.0449L7.00208 11.0449" stroke="#6366F1" stroke-opacity="1.000000" stroke-width="1.000000" stroke-linejoin="round" stroke-linecap="round"/>
	<path id="Stroke 15" d="M3.91028 11.0449L3.91656 11.0449" stroke="#6366F1" stroke-opacity="1.000000" stroke-width="1.000000" stroke-linejoin="round" stroke-linecap="round"/>
	<path id="Stroke 17" d="M9.79877 0.5L9.79877 2.78345" stroke="#6366F1" stroke-opacity="1.000000" stroke-width="1.000000" stroke-linejoin="round" stroke-linecap="round"/>
	<path id="Stroke 19" d="M4.19263 0.5L4.19263 2.78345" stroke="#6366F1" stroke-opacity="1.000000" stroke-width="1.000000" stroke-linejoin="round" stroke-linecap="round"/>
</svg>
