<svg width="47.913940" height="60.000000" viewBox="0 0 47.9139 60" fill="none" xmlns="http://www.w3.org/2000/svg" xmlns:xlink="http://www.w3.org/1999/xlink">
	<defs/>
	<path id="Vector" d="M5.90741 0.9375C4.78241 2.15625 4.87616 4.21875 6.09491 5.20312C7.03241 6 7.07928 6.375 7.07928 17.0625C7.07928 27.5156 7.12616 28.1719 8.01678 29.0625C8.53241 29.5781 8.95428 30.5156 8.95428 31.0781C8.95428 31.6875 9.37616 32.5781 9.93866 33.0938C10.7824 33.8438 11.673 33.9844 16.0793 33.9844C20.9074 33.9844 21.2824 33.9375 22.1262 32.8594C22.5949 32.25 23.0168 31.3594 23.0168 30.8906C23.0168 30.4219 23.4387 29.5781 23.9543 29.0625C24.6105 28.4062 24.8918 27.5156 24.8918 26.1094C24.8918 24.1875 24.9855 24.0938 27.048 23.25C28.6418 22.5938 29.5793 21.7969 30.4699 20.3438C32.0168 17.8125 33.2824 17.6719 36.423 19.7812C41.8605 23.4844 42.3762 31.125 37.4074 35.4844C35.298 37.3125 32.8137 38.1562 30.8449 37.6875C30.0012 37.5 23.298 37.2656 15.8449 37.1719L2.39178 36.9844L1.21991 38.1562C0.0480347 39.3281 -0.28009 41.25 0.329285 42.8906C0.891785 44.2969 3.14178 45 7.07928 45L10.8293 45L10.8293 46.3594C10.8293 47.6719 10.7824 47.6719 7.73553 47.9531C4.31366 48.1875 2.81366 49.0312 1.12616 51.5625C-0.326965 53.625 -0.37384 57.7031 0.985535 59.0625C1.87616 59.9531 2.53241 60 23.9543 60C45.3762 60 46.0324 59.9531 46.923 59.0625C48.2824 57.7031 48.2355 53.625 46.8293 51.5625C44.4387 48.0938 44.3449 48.0469 32.1105 47.9062L21.1418 47.7656L21.1418 46.4062L21.1418 45.0469L25.2668 44.8594C36.2355 44.2969 42.1887 41.2969 45.3762 34.7812C46.5012 32.4844 46.6887 31.5469 46.6887 28.125C46.6887 24.5625 46.5012 23.7656 45.1418 21C42.798 16.1719 38.2043 12.7969 33.423 12.2812C31.7355 12.1406 30.8449 11.7188 29.5793 10.5C28.6887 9.65625 27.2355 8.71875 26.3918 8.39062C24.6105 7.78125 24.3293 6.1875 25.8293 5.25C27.1887 4.40625 27.0949 1.6875 25.7355 0.75C24.8918 0.140625 23.0637 0 15.7043 0C7.40741 0 6.70428 0.046875 5.90741 0.9375ZM24.7512 2.625C24.8918 3.04688 24.7512 3.5625 24.3762 3.79688C23.5324 4.3125 8.43866 4.3125 7.59491 3.79688C7.21991 3.5625 7.07928 3.04688 7.21991 2.625C7.50116 1.96875 8.67303 1.875 15.9855 1.875C23.298 1.875 24.4699 1.96875 24.7512 2.625ZM22.923 7.125C22.8293 7.82812 22.3137 8.25 21.3293 8.53125C19.3605 9.04688 16.5949 12.1406 16.173 14.2969C15.4699 18.0938 17.4387 21.8438 20.9074 23.25C23.0168 24.1406 23.0637 24.1875 22.923 26.0156L22.7824 27.8906L15.9855 27.8906L9.18866 27.8906L9.04803 16.9688L8.95428 6.09375L16.0324 6.09375C23.0168 6.09375 23.0637 6.09375 22.923 7.125ZM27.0949 11.0625C28.548 12 30.048 14.4844 30.048 15.9375C30.048 18.8438 26.8605 22.0312 23.9543 22.0312C21.048 22.0312 17.8605 18.8438 17.8605 15.8906C17.8605 14.2031 19.6887 11.625 21.6105 10.6406C23.3918 9.70312 25.3137 9.84375 27.0949 11.0625ZM37.173 15.5156C45.6105 19.8281 47.4855 30.8438 40.923 37.6875C37.8762 40.8281 31.923 42.9844 31.923 40.875C31.923 40.2656 32.5324 39.8438 34.2199 39.4219C39.1418 38.1562 42.7512 33.375 42.7512 28.125C42.798 22.6875 39.4699 18.0938 34.4074 16.5938C32.4387 16.0312 31.923 15.6562 31.923 14.9062C31.923 14.0625 32.1105 14.0156 33.6574 14.2969C34.5949 14.4844 36.1887 15 37.173 15.5156ZM21.048 30.7969C20.9074 31.5469 20.298 31.6406 15.9855 31.6406C11.673 31.6406 11.0637 31.5469 10.923 30.7969C10.7824 30.0938 11.2512 30 15.9855 30C20.7199 30 21.1887 30.0938 21.048 30.7969ZM29.298 39.6562C30.2355 40.5938 30.2355 41.2031 29.2512 42.2812C28.548 43.0781 27.5168 43.125 15.9387 43.125C5.15741 43.125 3.28241 43.0312 2.67303 42.375C2.25116 42 1.92303 41.3438 1.92303 41.0156C1.92303 40.6875 2.25116 40.0312 2.67303 39.6562C3.75116 38.5312 28.2199 38.5312 29.298 39.6562ZM18.798 46.4062L18.798 47.8125L15.9855 47.8125L13.173 47.8125L13.173 46.4062L13.173 45L15.9855 45L18.798 45L18.798 46.4062ZM44.2043 51.5156C45.5168 52.6875 45.7043 53.1562 45.7512 55.3594L45.7512 57.8906L23.9543 57.8906L2.15741 57.8906L2.01678 55.6406C1.87616 53.625 2.01678 53.25 3.46991 51.7969L5.11053 50.1562L23.9074 50.1562L42.7043 50.1562L44.2043 51.5156Z" fill="#6366F1" fill-opacity="1.000000" fill-rule="nonzero"/>
	<path id="Vector" d="M21.9387 13.9688C20.2043 15.8906 21.423 18.75 23.9543 18.75C25.6418 18.75 26.7668 17.6719 26.7668 15.9844C26.7668 13.4531 23.5793 12.1406 21.9387 13.9688ZM24.798 16.0781C24.8918 16.6406 24.6574 16.875 24.0012 16.875C23.4387 16.875 23.0168 16.5938 23.0168 16.2656C23.0168 14.8125 24.5168 14.6719 24.798 16.0781Z" fill="#6366F1" fill-opacity="1.000000" fill-rule="nonzero"/>
</svg>
