<svg width="46.858093" height="60.000000" viewBox="0 0 46.8581 60" fill="none" xmlns="http://www.w3.org/2000/svg" xmlns:xlink="http://www.w3.org/1999/xlink">
	<defs/>
	<path id="Vector" d="M19.9087 0.435303C18.876 0.669922 15.872 1.74951 13.2434 2.8291C8.36185 4.84741 7.51695 5.64551 9.06592 6.91284C9.67612 7.42896 9.67612 7.71069 9.06592 9.07202C8.69041 10.0107 8.40878 12.2168 8.40878 14.282C8.40878 17.1453 8.22102 18.084 7.47002 19.0229C6.95369 19.6799 6.53125 20.6187 6.53125 21.135C6.53125 22.3086 8.59653 24.3269 9.81693 24.3269C10.4741 24.3269 10.7557 24.6555 10.7557 25.3596C10.7557 26.7676 13.2434 31.0391 14.7455 32.2124C15.5434 32.8696 15.9189 33.6206 15.9189 34.6064C15.9189 35.8267 15.6373 36.2021 13.9475 37.0471C12.821 37.6104 11.5067 38.5491 10.9904 39.1125C10.4271 39.8164 8.73735 40.6145 6.67206 41.1777C4.13739 41.9287 3.01086 42.5391 1.88435 43.8064C0.100693 45.8247 -0.134003 47.1389 0.0537567 54.1328C0.147629 58.7795 0.335388 59.7654 0.898651 59.7654C1.4619 59.7654 1.64966 58.5918 1.83742 52.8184C2.0721 45.9185 2.0721 45.8247 3.38638 44.698C4.46596 43.7593 10.0986 41.6941 11.6006 41.6941C12.5863 41.6941 12.6332 43.2429 11.6945 44.2756C10.4271 45.637 10.521 46.3879 12.1638 49.6736L13.572 52.4897L12.4455 52.4897C11.7414 52.4897 11.2251 52.1614 11.0843 51.551C10.7557 50.3308 9.81693 50.3308 9.48836 51.5042C9.30061 52.2551 8.78429 52.4897 7.04756 52.5837L4.8884 52.7246L4.8884 56.2449L4.8884 59.7654L10.2863 59.7654C15.5434 59.7654 15.6373 59.7654 15.9189 58.6387L16.1536 57.5122L16.7169 58.7795C17.3271 60.0469 17.9842 60.3286 18.5005 59.5305C18.6413 59.2959 17.374 56.3389 15.6842 53.0061C13.9944 49.6267 12.6332 46.6226 12.6332 46.2939C12.6332 46.0125 13.1965 45.1675 13.8536 44.4165L15.121 43.1492L13.8067 41.4595C13.1026 40.5205 12.6332 39.6758 12.6802 39.6287C13.2434 39.1594 16.0597 37.8921 16.2005 38.0798C16.2944 38.1736 16.9046 40.0042 17.5618 42.1633C18.2189 44.3696 18.923 46.2939 19.1577 46.5288C19.8148 47.1858 20.7066 46.4348 20.425 45.543C20.1903 44.8389 20.5658 44.7451 23.429 44.7451C25.4474 44.7451 26.6678 44.9329 26.5739 45.2144C26.48 45.4492 25.776 47.843 25.0249 50.4714C24.2739 53.147 23.5229 55.3062 23.3821 55.3062C23.2413 55.3062 22.8188 54.1328 22.4903 52.7246C21.7393 49.6267 20.8944 48.2654 20.1903 49.0164C19.4393 49.7205 22.4903 59.7654 23.429 59.7654C23.9454 59.7654 25.0249 56.8081 27.1841 49.439C28.8739 43.7593 30.3759 38.8308 30.5167 38.4553C30.7045 37.939 31.0331 37.939 32.3473 38.6431C33.2392 39.1125 34.084 39.5349 34.1779 39.6287C34.2249 39.6758 33.7555 40.5205 33.0514 41.4595L31.7371 43.1492L33.0045 44.4165C33.6616 45.1675 34.2249 46.0125 34.2249 46.2939C34.2249 46.6226 32.8636 49.6267 31.1739 53.0061C28.3106 58.6387 27.9351 60 29.1086 60C29.6249 60 36.1024 47.1389 36.1024 46.0593C36.1024 45.637 35.6799 44.8389 35.1636 44.2756C34.2249 43.2429 34.2718 41.6941 35.2575 41.6941C36.7595 41.6941 42.3921 43.7593 43.4717 44.698C44.786 45.8247 44.786 45.9185 45.0207 52.8184C45.2084 58.5918 45.3962 59.7654 45.9594 59.7654C46.5227 59.7654 46.7105 58.7795 46.8043 54.1328C46.9921 47.1389 46.7574 45.8247 44.9737 43.8064C43.8472 42.5391 42.7207 41.9287 40.186 41.1777C38.1207 40.6145 36.431 39.8164 35.8677 39.1125C35.3514 38.5491 34.0371 37.6104 32.9575 37.0471C31.2208 36.2021 30.9392 35.8267 30.9392 34.6064C30.9392 33.6206 31.3147 32.8696 32.1126 32.2124C33.6147 31.0391 36.1024 26.7676 36.1024 25.3596C36.1024 24.6555 36.384 24.3269 37.0412 24.3269C38.2616 24.3269 40.3268 22.3086 40.3268 21.135C40.3268 20.6187 39.9044 19.6799 39.3881 19.0229C38.5901 17.9902 38.4493 17.1453 38.4493 12.4983C38.4493 5.31689 37.182 2.9231 32.7698 1.79639C31.8779 1.56177 30.329 1.09229 29.2963 0.669922C27.231 -0.12793 22.8188 -0.221924 19.9087 0.435303ZM28.8739 2.26587C29.531 2.54736 30.7514 3.43921 31.5024 4.2373C32.8636 5.73926 32.9106 5.73926 33.6147 4.84741C34.2718 3.90869 34.3187 3.95557 35.4453 5.2229C36.5248 6.44336 36.5718 6.86572 36.5718 12.1699C36.5718 17.2861 36.4779 17.8025 35.7738 17.6616C35.1636 17.5676 34.8351 16.8638 34.6473 15.3616C34.3187 13.0618 32.8636 9.823 31.7371 8.88428C31.1739 8.41479 30.4229 8.46167 28.029 9.1189C24.3209 10.1045 17.6556 10.2454 15.4495 9.35352C13.572 8.60254 10.7557 6.6311 10.7557 6.06787C10.7557 5.73926 18.5944 2.50049 20.3781 2.125C22.3025 1.70264 27.6066 1.79639 28.8739 2.26587ZM14.7455 10.8086C17.374 11.8882 23.2413 12.0759 26.48 11.2781C31.08 10.1045 30.7514 10.0576 31.831 12.2637C32.3943 13.3901 32.8167 15.033 32.8167 15.9248C32.8636 18.178 33.8493 19.3044 36.1963 19.5862C37.7922 19.8208 38.2616 20.0554 38.3554 20.8535C38.5432 22.0269 37.2289 22.731 36.2901 21.9331C35.3044 21.135 34.8351 21.7454 34.5065 24.28C34.131 27.0962 32.2065 30.1003 29.578 31.884C22.9597 36.2961 13.3842 32.0718 12.3516 24.28C12.023 21.7454 11.5536 21.135 10.521 21.98C9.53529 22.825 8.3149 22.1677 8.50266 20.9473C8.59653 20.0554 9.01898 19.8208 10.6618 19.5862C13.2904 19.2576 14.0883 18.178 13.9006 15.1738C13.8536 13.4373 13.6189 12.8269 13.1026 12.8269C12.5863 12.8269 12.3516 13.4841 12.1638 15.1738C11.9761 16.9106 11.7414 17.5676 11.1312 17.6616C10.3802 17.8025 10.2863 17.3799 10.2863 14.3291C10.2863 10.1516 10.5679 9.1189 11.6475 9.58813C12.07 9.729 13.4781 10.3394 14.7455 10.8086ZM26.2453 35.0288L29.0616 34.3247L29.0616 35.4512C29.0616 36.0615 28.7331 37.7981 28.3106 39.3003C27.4188 42.3982 26.527 43.1023 23.429 43.1023C20.3311 43.1023 19.4393 42.3982 18.5475 39.3003C18.125 37.7981 17.7964 36.0615 17.7964 35.4512L17.7964 34.3247L20.6127 35.0288C23.1005 35.6389 23.7576 35.6389 26.2453 35.0288ZM9.72305 54.9307C10.1455 55.353 10.4271 55.353 10.8496 54.9307C11.1781 54.6021 12.023 54.3674 12.7271 54.3674C13.9475 54.3674 14.0414 54.5083 14.0414 56.2449L14.0414 58.1226L10.2863 58.1226L6.53125 58.1226L6.53125 56.2449C6.53125 54.5083 6.62512 54.3674 7.84552 54.3674C8.54959 54.3674 9.39449 54.6021 9.72305 54.9307Z" fill="#6366F1" fill-opacity="1.000000" fill-rule="nonzero"/>
	<path id="Vector" d="M16.1536 16.3474C15.6373 17.1921 16.623 17.8494 18.0781 17.6616C19.9556 17.4739 19.8617 16.1597 17.9373 15.9719C17.1393 15.8779 16.3414 16.0657 16.1536 16.3474Z" fill="#6366F1" fill-opacity="1.000000" fill-rule="nonzero"/>
	<path id="Vector" d="M27.4188 16.3474C26.9025 17.1921 27.8882 17.8494 29.3433 17.6616C31.2208 17.4739 31.1269 16.1597 29.2025 15.9719C28.4045 15.8779 27.6066 16.0657 27.4188 16.3474Z" fill="#6366F1" fill-opacity="1.000000" fill-rule="nonzero"/>
	<path id="Vector" d="M17.0454 19.3516C16.6699 20.384 17.1862 21.6514 17.9373 21.3699C18.2189 21.2759 18.5005 20.7126 18.5005 20.1025C18.5005 18.8352 17.4679 18.272 17.0454 19.3516Z" fill="#6366F1" fill-opacity="1.000000" fill-rule="nonzero"/>
	<path id="Vector" d="M28.3106 19.3516C27.9351 20.384 28.4514 21.6514 29.2024 21.3699C29.4841 21.2759 29.7657 20.7126 29.7657 20.1025C29.7657 18.8352 28.7331 18.272 28.3106 19.3516Z" fill="#6366F1" fill-opacity="1.000000" fill-rule="nonzero"/>
	<path id="Vector" d="M19.9087 25.688C19.4393 26.4858 20.0495 27.0962 21.927 27.6594C23.3821 28.0818 24.0393 28.0349 25.4944 27.4248C27.278 26.6736 27.6535 25.3594 25.9637 25.688C24.3678 25.9697 21.7862 25.9226 21.0352 25.5471C20.5658 25.3594 20.0965 25.4062 19.9087 25.688Z" fill="#6366F1" fill-opacity="1.000000" fill-rule="nonzero"/>
	<path id="Vector" d="M38.3085 50.894C38.1207 51.0818 37.9799 51.5979 37.9799 52.0674C37.9799 52.5837 37.5575 52.9592 36.9473 53.0532C35.5861 53.241 35.5391 54.5552 36.9003 54.7429C37.5575 54.8367 37.9799 55.2593 38.0738 55.9163C38.2615 57.2776 39.5758 57.2776 39.7636 55.9163C39.8574 55.2593 40.2799 54.8367 40.937 54.7429C41.5003 54.6489 41.9697 54.2734 41.9697 53.8979C41.9697 53.5225 41.5003 53.147 40.937 53.0532C40.3268 52.9592 39.8574 52.4897 39.7636 51.9265C39.6228 50.894 38.8717 50.3777 38.3085 50.894Z" fill="#6366F1" fill-opacity="1.000000" fill-rule="nonzero"/>
</svg>
