<svg width="16.000000" height="16.000000" viewBox="0 0 16 16" fill="none" xmlns="http://www.w3.org/2000/svg" xmlns:xlink="http://www.w3.org/1999/xlink">
	<defs/>
	<path id="Stroke 1" d="M7.60565 8.39771C10.9649 11.7561 11.727 7.87085 13.8658 10.0083C15.9278 12.0696 17.1129 12.4827 14.5004 15.0945C14.1732 15.3574 12.094 18.5215 4.78705 11.2166C-2.52081 3.91064 0.641357 1.82935 0.904419 1.5022C3.52325 -1.1167 3.92914 0.0751953 5.99115 2.13672C8.13 4.2749 4.24646 5.03955 7.60565 8.39771Z" fill="#6366F1" fill-opacity="1.000000" fill-rule="evenodd"/>
	<path id="Stroke 1" d="M13.8658 10.0083C15.9278 12.0696 17.1129 12.4827 14.5004 15.0945C14.1732 15.3574 12.094 18.5215 4.78705 11.2166C-2.52081 3.91064 0.641357 1.82935 0.904419 1.5022C3.52325 -1.1167 3.92914 0.0751953 5.99115 2.13672C8.13 4.2749 4.24646 5.03955 7.60565 8.39771C10.9649 11.7561 11.727 7.87085 13.8658 10.0083Z" stroke="#000000" stroke-opacity="0" stroke-width="0.000000" stroke-linejoin="round"/>
</svg>
