<svg width="15.988953" height="13.000000" viewBox="0 0 15.989 13" fill="none" xmlns="http://www.w3.org/2000/svg" xmlns:xlink="http://www.w3.org/1999/xlink">
	
	<defs/>
	<path id="Vector" d="M15.9882 1.54324C15.3893 1.80814 14.7543 1.98209 14.1041 2.05936C14.7894 1.64948 15.3024 1.00439 15.5473 0.244293C14.9041 0.627075 14.199 0.895325 13.464 1.04044C12.9703 0.512238 12.3159 0.161896 11.6026 0.0439453C10.8893 -0.0740051 10.157 0.0470276 9.51953 0.388184C8.88208 0.72937 8.37521 1.27161 8.0777 1.93057C7.78021 2.58954 7.70877 3.32834 7.87445 4.0321C6.5701 3.96674 5.2941 3.62778 4.12924 3.03723C2.96439 2.44672 1.93674 1.6178 1.11304 0.60434C0.821472 1.10513 0.668274 1.67441 0.669067 2.25391C0.669067 3.39127 1.24796 4.39606 2.12805 4.98434C1.60721 4.96796 1.09784 4.8273 0.642426 4.57413L0.642426 4.6149C0.642578 5.37238 0.904694 6.10651 1.38434 6.69278C1.86395 7.27908 2.53159 7.68146 3.27402 7.83167C2.79056 7.96271 2.2836 7.98199 1.79153 7.88815C2.00085 8.54016 2.40884 9.11038 2.95837 9.51898C3.5079 9.92758 4.17148 10.1541 4.85614 10.1668C4.17566 10.7012 3.39655 11.0963 2.56329 11.3294C1.73004 11.5625 0.859009 11.6291 0 11.5254C1.49951 12.4897 3.24509 13.0016 5.02792 13C11.0622 13 14.3621 8.0011 14.3621 3.6658C14.3621 3.5246 14.3582 3.38184 14.3519 3.24222C14.9942 2.77798 15.5486 2.20294 15.989 1.54404L15.9882 1.54324Z" fill="#6366F1" fill-opacity="1.000000" fill-rule="nonzero"/>
</svg>
