<svg width="60.000000" height="60.000000" viewBox="0 0 60 60" fill="none" xmlns="http://www.w3.org/2000/svg" xmlns:xlink="http://www.w3.org/1999/xlink">
	<defs/>
	<path id="Vector" d="M25.0781 1.17188C23.5781 2.625 23.5781 4.40625 25.125 5.90625C26.9531 7.78125 26.4844 8.85938 23.3906 9.84375C21.9844 10.2656 20.1562 11.0156 19.3594 11.4844C17.2969 12.7031 16.4062 12.1875 16.4062 9.70312C16.4062 7.21875 15.375 6.09375 13.125 6.09375C11.8125 6.09375 11.0156 6.5625 8.8125 8.76562C6.51562 11.0625 6.09375 11.7188 6.09375 13.1719C6.09375 15.375 7.26562 16.4062 9.79688 16.4062C12.1875 16.4062 12.7031 17.2969 11.4844 19.3594C11.0156 20.1562 10.2656 21.9844 9.84375 23.3906C8.76562 26.9062 7.96875 27.3281 6.1875 25.4062C4.45312 23.5781 2.76562 23.4375 1.17188 25.0781C0.140625 26.1094 0 26.5781 0 30C0 33.4219 0.140625 33.8906 1.17188 34.9219C2.625 36.4219 4.40625 36.4219 5.90625 34.875C7.78125 33.0469 8.85938 33.5156 9.84375 36.6094C10.2656 38.0156 11.0156 39.8438 11.4844 40.6406C12.7031 42.7031 12.1875 43.5938 9.70312 43.5938C7.21875 43.5938 6.09375 44.625 6.09375 46.875C6.09375 48.1875 6.5625 48.9844 8.76562 51.1875C11.0625 53.4844 11.7188 53.9062 13.1719 53.9062C15.375 53.9062 16.4062 52.7344 16.4062 50.2031C16.4062 47.8125 17.2969 47.2969 19.3594 48.5156C20.1562 48.9844 21.9844 49.7344 23.3906 50.1562C26.4844 51.1406 26.9531 52.2188 25.125 54.0938C23.5781 55.5938 23.5781 57.375 25.0781 58.8281C26.1094 59.8594 26.5781 60 30 60C33.4219 60 33.8906 59.8594 34.9219 58.8281C36.4219 57.375 36.4219 55.5938 34.875 54.0938C33.0469 52.2188 33.5156 51.1406 36.6094 50.1562C38.0156 49.7344 39.8438 48.9844 40.6406 48.5156C42.7031 47.2969 43.5938 47.8125 43.5938 50.2969C43.5938 52.7812 44.625 53.9062 46.8281 53.9062C48.0469 53.9062 48.9375 53.3438 51.1406 51.2344C53.5312 48.9375 53.9062 48.375 53.9062 46.875C53.9062 44.625 52.7812 43.5938 50.2031 43.5938C47.8125 43.5938 47.2969 42.7031 48.5156 40.6406C48.9844 39.8438 49.7344 38.0156 50.1562 36.6094C51.1406 33.5156 52.2188 33.0469 54.0938 34.875C55.5938 36.4219 57.375 36.4219 58.8281 34.9219C59.8594 33.8906 60 33.4219 60 30C60 26.5781 59.8594 26.1094 58.8281 25.0781C57.2344 23.4375 55.5469 23.5781 53.8125 25.4062C52.0312 27.3281 51.2344 26.9062 50.1562 23.3906C49.7344 21.9844 48.9844 20.1562 48.5156 19.3594C47.2969 17.2969 47.8125 16.4062 50.2969 16.4062C52.7812 16.4062 53.9062 15.375 53.9062 13.125C53.9062 11.8125 53.4375 11.0156 51.2344 8.8125C48.9375 6.51562 48.2812 6.09375 46.8281 6.09375C44.625 6.09375 43.5938 7.26562 43.5938 9.79688C43.5938 12.1875 42.7031 12.7031 40.6406 11.4844C39.8438 11.0156 38.0156 10.2656 36.6094 9.84375C33.5156 8.85938 33.0469 7.78125 34.875 5.90625C36.4219 4.40625 36.4219 2.625 34.9219 1.17188C33.8906 0.140625 33.4219 0 30 0C26.5781 0 26.1094 0.140625 25.0781 1.17188ZM33.6562 3.375C33.75 3.9375 33.4219 4.35938 32.6719 4.64062C31.2656 5.20312 30.7969 6.79688 31.4531 9C31.8281 10.5 32.2031 10.8281 34.3594 11.5312C35.6719 11.9531 37.7812 12.7969 39 13.4062C42 14.9062 43.5938 14.8594 45.1875 13.1719C46.2656 12.0469 46.4062 11.5781 46.1719 10.125C45.8906 8.67188 45.9375 8.4375 46.7344 8.4375C47.8594 8.4375 51.5625 12.1875 51.5625 13.3125C51.5625 14.0625 51.3281 14.1094 49.875 13.8281C48.4219 13.5938 47.9531 13.7344 46.8281 14.8125C45.1406 16.4062 45.0938 18 46.5938 21C47.2031 22.2188 48.0469 24.2812 48.4688 25.6406C49.1719 27.7031 49.5 28.125 50.9062 28.5938C53.0625 29.3438 54.75 28.8281 55.3125 27.375C55.6406 26.625 56.0625 26.25 56.625 26.3438C57.2812 26.4844 57.4219 27.0469 57.4219 30C57.4219 32.9531 57.2812 33.5156 56.625 33.6562C56.0625 33.75 55.6406 33.375 55.3125 32.625C54.9375 31.5469 54.6094 31.4062 52.6406 31.4062C51.375 31.4062 50.1094 31.5938 49.8281 31.7812C49.5 31.9688 48.8438 33.3281 48.3281 34.7344C47.8594 36.1406 47.0156 38.2031 46.4531 39.2812C45.0938 41.9531 45.1875 43.5938 46.8281 45.1875C47.9531 46.2656 48.4219 46.4062 49.875 46.1719C51.3281 45.8906 51.5625 45.9375 51.5625 46.7344C51.5625 47.8594 47.8125 51.5625 46.6875 51.5625C45.9375 51.5625 45.8906 51.3281 46.1719 49.875C46.4062 48.4219 46.2656 47.9531 45.1875 46.8281C43.5938 45.1406 42 45.0938 39 46.5938C37.7812 47.2031 35.6719 48.0469 34.3594 48.4688C32.2031 49.1719 31.8281 49.5 31.4531 51C30.7969 53.2031 31.2656 54.7969 32.6719 55.3594C33.4219 55.6406 33.75 56.0625 33.6562 56.625C33.5156 57.2812 32.9531 57.4219 30 57.4219C27.0469 57.4219 26.4844 57.2812 26.3438 56.625C26.25 56.0625 26.5781 55.6406 27.3281 55.3594C28.7344 54.7969 29.2031 53.2031 28.5469 51C28.1719 49.5 27.7969 49.1719 25.6406 48.4688C24.3281 48.0469 22.2188 47.2031 21 46.5938C18 45.0938 16.4062 45.1406 14.8125 46.8281C13.7344 47.9531 13.5938 48.4219 13.8281 49.875C14.1094 51.3281 14.0625 51.5625 13.3125 51.5625C12.1875 51.5625 8.4375 47.8594 8.4375 46.7344C8.4375 45.9375 8.67188 45.8906 10.125 46.1719C11.5781 46.4062 12.0469 46.2656 13.1719 45.1875C14.8125 43.5938 14.9062 41.9531 13.5469 39.2812C12.9844 38.2031 12.1406 36.1406 11.6719 34.7344C11.1562 33.3281 10.5 31.9688 10.1719 31.7812C9.89062 31.5938 8.625 31.4062 7.35938 31.4062C5.39062 31.4062 5.0625 31.5469 4.6875 32.625C4.35938 33.375 3.9375 33.75 3.375 33.6562C2.71875 33.5156 2.57812 32.9531 2.57812 30C2.57812 27.0469 2.71875 26.4844 3.375 26.3438C3.9375 26.25 4.35938 26.625 4.6875 27.375C5.25 28.875 6.9375 29.3438 9.09375 28.5938C10.5469 28.125 10.875 27.75 11.4375 25.8281C11.8125 24.6094 12.6562 22.5 13.3125 21.1875C14.9062 18.0469 14.9062 16.4531 13.1719 14.8125C12.0469 13.7344 11.5781 13.5938 10.125 13.8281C8.67188 14.1094 8.4375 14.0625 8.4375 13.2656C8.4375 12.1406 12.1875 8.4375 13.3125 8.4375C14.0625 8.4375 14.1094 8.67188 13.8281 10.125C13.5938 11.5781 13.7344 12.0469 14.8125 13.1719C16.4531 14.9062 18.0469 14.9062 21.1875 13.3125C22.5 12.6562 24.6094 11.7656 25.8281 11.4375C27.8906 10.8281 28.125 10.5469 28.5938 8.95312C29.1562 6.84375 28.5469 4.6875 27.4688 4.6875C26.5781 4.6875 26.1094 3.89062 26.4375 3C26.625 2.4375 27.4219 2.34375 30.0938 2.4375C32.9062 2.53125 33.5156 2.71875 33.6562 3.375Z" fill="#6366F1" fill-opacity="1.000000" fill-rule="nonzero"/>
	<path id="Vector" d="M24.0468 15.5625C20.5781 16.5 19.4531 20.9062 21.9843 23.4844C24.7968 26.25 29.5312 24.75 30.2812 20.8594C30.8906 17.4375 27.6093 14.5781 24.0468 15.5625ZM27.75 18.9375C28.8281 20.4844 27.4687 22.5 25.3593 22.5C23.6718 22.5 22.875 21.5156 23.0625 19.8281C23.3437 17.5312 26.4375 16.9219 27.75 18.9375Z" fill="#6366F1" fill-opacity="1.000000" fill-rule="nonzero"/>
	<path id="Vector" d="M35.625 20.1562C35.625 20.9062 35.8594 21.1406 36.7031 21C37.2656 20.9062 37.7344 20.5312 37.7344 20.1562C37.7344 19.7812 37.2656 19.4062 36.7031 19.3125C35.8594 19.1719 35.625 19.4062 35.625 20.1562Z" fill="#6366F1" fill-opacity="1.000000" fill-rule="nonzero"/>
	<path id="Vector" d="M37.8281 26.9065C37.5 27.7034 38.3438 28.594 39.4219 28.594C40.5 28.594 42.5625 30.6096 42.9375 32.0627C43.6875 35.0627 41.4375 37.969 38.3438 37.969C35.7656 37.969 34.7344 37.2659 33.6562 34.8752C32.5312 32.344 31.125 32.1565 31.2188 34.5471C31.3125 36.3752 32.9062 38.6721 34.6875 39.6096C36.7031 40.6409 40.125 40.5002 42.0938 39.2815C43.7812 38.2502 45.4688 35.2971 45.4688 33.2815C45.4688 31.2659 43.7812 28.3127 42.0938 27.2815C40.2188 26.1096 38.2031 25.9221 37.8281 26.9065Z" fill="#6366F1" fill-opacity="1.000000" fill-rule="nonzero"/>
	<path id="Vector" d="M33.4218 27.9844C32.4375 28.3594 32.7187 30 33.7031 30C34.2187 30 34.7812 29.7656 34.9687 29.4844C35.3437 28.8281 34.1718 27.7031 33.4218 27.9844Z" fill="#6366F1" fill-opacity="1.000000" fill-rule="nonzero"/>
	<path id="Vector" d="M15.9375 30C15.9375 30.6094 16.2656 30.9375 16.875 30.9375C17.4844 30.9375 17.8125 30.6094 17.8125 30C17.8125 29.3906 17.4844 29.0625 16.875 29.0625C16.2656 29.0625 15.9375 29.3906 15.9375 30Z" fill="#6366F1" fill-opacity="1.000000" fill-rule="nonzero"/>
	<path id="Vector" d="M19.3594 34.4062C18.3281 35.2969 18.0469 35.9062 18.0469 37.4531C18.0469 39.7969 19.2656 41.1562 21.6094 41.5312C25.4531 42.1875 27.8438 37.2188 25.0781 34.4531C23.5781 32.9062 21.1406 32.9062 19.3594 34.4062ZM23.8125 36.9375C24.1406 39.2812 21.5156 40.3125 20.5312 38.2031C19.875 36.7031 20.7656 35.5312 22.4531 35.7188C23.2969 35.8125 23.7188 36.1875 23.8125 36.9375Z" fill="#6366F1" fill-opacity="1.000000" fill-rule="nonzero"/>
	<path id="Vector" d="M29.3906 42.9375C28.6406 43.6875 29.0625 45 30.0468 45C30.75 45 30.9843 44.7656 30.8437 43.9688C30.7031 42.9375 29.9531 42.4219 29.3906 42.9375Z" fill="#6366F1" fill-opacity="1.000000" fill-rule="nonzero"/>
</svg>
