<svg width="59.131927" height="80.000061" viewBox="0 0 59.1319 80.0001" fill="none" xmlns="http://www.w3.org/2000/svg" xmlns:xlink="http://www.w3.org/1999/xlink">
	<defs/>
	<path id="Vector" d="M28.3275 0.919403C27.8895 2.04584 28.5153 3.10968 29.6417 3.10968C30.5804 3.10968 31.1436 1.92068 30.7681 0.731659C30.3926 -0.332184 28.7656 -0.207031 28.3275 0.919403Z" fill="#FFFFFF" fill-opacity="0.100000" fill-rule="nonzero"/>
	<path id="Vector" d="M19.5664 1.79556C7.23834 5.92578 -0.646637 17.8784 0.0417175 31.2078C0.417206 37.9038 2.10684 42.5346 6.29965 47.979L9.36603 52.0467L4.61002 60.4948C0.104309 68.3173 -0.646637 70.7578 1.2933 70.6953C1.73135 70.6327 3.92163 70.2572 6.17447 69.7566C12.8705 68.3173 12.495 68.1295 14.6227 74.2623C15.8743 77.8919 16.8755 79.8318 17.5639 79.957C18.3148 80.0821 19.8793 77.8293 23.3212 71.7591C25.9495 67.1282 28.4527 62.9354 28.8907 62.3096C29.5165 61.4335 30.2675 62.4348 34.2726 69.5063C36.8383 74.0119 39.404 78.2673 40.0298 79.0183C41.0311 80.2073 41.2188 80.2699 42.0323 79.4563C42.533 78.9557 43.722 76.3274 44.6607 73.6365C46.6006 68.1921 46.4755 68.2547 53.0463 69.7566C57.4268 70.8204 58.741 70.6327 58.741 69.1934C58.741 68.6302 56.6133 64.4999 54.1101 59.9316L49.4167 51.6712L51.9199 48.9803C53.2966 47.4784 55.2366 44.5372 56.2378 42.472C63.7473 26.5769 56.1127 8.17865 39.4666 1.85815C36.2751 0.606567 34.5229 0.982056 35.1487 2.73425C35.399 3.29749 36.0873 3.92328 36.6505 4.11099C40.4053 5.17487 45.8497 8.6167 48.7283 11.6205C63.3719 27.0776 54.7359 52.2344 33.459 55.864C22.1322 57.804 10.7428 51.7338 5.48611 40.9702C3.48358 36.7773 3.35843 36.2767 3.35843 29.7059C3.35843 23.5106 3.54617 22.4467 5.11063 19.13C8.36475 12.1212 14.0594 6.80191 20.6929 4.61163C22.8206 3.92328 23.6967 3.29749 23.6967 2.48395C23.6967 0.73172 23.0083 0.606567 19.5664 1.79556ZM22.6954 58.4923C24.0721 58.7426 25.574 59.1181 25.9495 59.3684C26.4501 59.6187 25.1985 62.3722 22.3825 67.1908C18.1271 74.6377 18.1271 74.6377 17.4387 72.823C15.1233 66.565 14.6227 65.5638 13.9969 65.3134C13.6214 65.1257 11.4311 65.4386 9.11569 65.9392C6.80026 66.3773 4.92291 66.6276 4.92291 66.5024C4.92291 66.3147 6.48737 63.4361 8.36475 60.0568L11.8692 53.924L15.9994 56.0517C18.2523 57.1782 21.2561 58.3046 22.6954 58.4923ZM50.7309 60.2445C52.6708 63.749 54.1727 66.6902 54.1101 66.7528C54.1101 66.8153 52.2328 66.4399 49.9799 66.0018C47.7271 65.5012 45.5994 65.1257 45.1613 65.0631C44.7858 65.0631 43.8472 66.6902 43.1588 68.6302C42.4078 70.6327 41.5943 72.823 41.344 73.4487C40.9059 74.45 40.0298 73.3236 36.6505 67.2534C34.3351 63.1858 32.5203 59.7439 32.6455 59.6187C32.7706 59.4936 34.5229 58.993 36.5254 58.4297C38.5279 57.9291 41.5943 56.6775 43.3465 55.7388C45.0988 54.7375 46.6632 53.924 46.851 53.8615C47.0387 53.8615 48.7283 56.7401 50.7309 60.2445Z" fill="#FFFFFF" fill-opacity="0.100000" fill-rule="nonzero"/>
	<path id="Vector" d="M22.1323 7.55295C12.3699 10.9948 6.17456 19.5681 6.17456 29.706C6.17456 40.0315 12.4325 48.5423 22.4452 51.9216C33.7094 55.7389 46.9136 49.481 51.2942 38.2793C53.2341 33.3356 53.2341 26.0764 51.2942 21.1326C46.9136 9.86838 33.3339 3.54788 22.1323 7.55295ZM38.3403 11.4954C46.7885 15.6256 51.4193 25.388 49.1039 34.2743C47.4768 40.8451 43.4717 45.6637 37.5267 48.4171C33.1462 50.4197 25.7618 50.2319 21.131 48.1042C16.813 46.0391 13.1834 42.5347 11.1183 38.4045C9.86673 35.8387 9.61642 34.3994 9.61642 29.706C9.61642 25.0125 9.86673 23.5732 11.1183 21.0075C13.6841 15.7508 19.0659 11.3703 24.6354 9.93094C28.265 8.99225 34.7107 9.68063 38.3403 11.4954Z" fill="#FFFFFF" fill-opacity="0.100000" fill-rule="nonzero"/>
	<path id="Vector" d="M26.5753 18.6295L24.385 22.9474L19.8793 23.6358C17.3761 24.0113 15.1233 24.6996 14.8729 25.1377C14.4975 25.7009 15.4362 27.0777 17.689 29.3931L21.0057 32.835L20.3799 37.4032C19.5038 43.4108 19.9419 43.7863 24.823 41.3457C26.9507 40.2819 29.0158 39.4058 29.4539 39.4058C29.8919 39.4058 31.9571 40.3445 34.1473 41.4083C39.2162 44.0992 39.7794 43.6612 38.7156 37.5284L37.9647 33.0227L41.2188 29.706C44.9735 25.8887 45.0361 24.6996 41.4065 24.0113C34.3976 22.8223 34.7731 23.01 32.4577 18.7546C31.2687 16.5644 29.9545 14.687 29.5165 14.5618C29.0784 14.3741 27.8268 16.1889 26.5753 18.6295ZM33.5215 25.8261C34.1473 26.0138 35.7118 26.3267 37.0886 26.577L39.5291 26.9525L37.1511 29.3931C34.8357 31.7711 34.7731 31.8963 35.2112 35.2755L35.5866 38.7174L32.708 37.0903L29.8294 35.4633L27.0759 36.84C25.5114 37.5284 24.1347 38.1542 23.9469 38.1542C23.6966 38.1542 23.7592 36.6523 23.9469 34.8375C24.385 31.7085 24.3224 31.5208 22.1321 29.3931C19.7541 27.0777 20.067 26.3267 23.3837 26.2641C25.8869 26.2641 26.3875 25.8261 28.0771 22.5094L29.5165 19.7559L30.9558 22.6346C31.7693 24.2616 32.9583 25.7009 33.5215 25.8261Z" fill="#FFFFFF" fill-opacity="0.100000" fill-rule="nonzero"/>
</svg>
