<svg width="79.927917" height="80.000031" viewBox="0 0 79.9279 80" fill="none" xmlns="http://www.w3.org/2000/svg" xmlns:xlink="http://www.w3.org/1999/xlink">
	<defs/>
	<path id="Vector" d="M50.4153 0.475098C50.1654 0.662567 49.9779 2.53738 49.9779 4.53717C49.9779 7.84933 49.8529 8.2243 48.478 8.78674C46.1658 9.66165 45.6033 11.2865 45.6033 17.1609C45.6033 23.4102 45.8533 24.1601 48.1656 25.41C49.4779 26.0974 49.9779 26.7849 49.9779 28.0347C49.9779 30.1595 49.4779 30.7845 47.3531 31.7219C44.3535 33.0967 45.8533 36.2214 49.103 35.409C51.8527 34.7216 53.7275 32.0968 53.7275 29.0346C53.7275 26.6599 53.9775 26.2224 55.5398 25.41C57.8521 24.1601 58.102 23.4102 58.102 17.1609C58.102 11.2865 57.5396 9.66165 55.2273 8.78674C53.915 8.28677 53.665 7.78683 53.8525 6.16202L54.04 4.09973L58.4145 4.09973L62.7891 4.09973L62.9765 19.5981C63.1015 32.6593 63.289 35.159 64.0389 35.409C64.6014 35.659 65.4138 35.4715 65.9137 35.034C66.7262 34.4091 66.8511 31.5969 66.8511 17.9108C66.8511 6.03702 66.6637 1.35001 66.1012 0.787567C65.2888 -0.0248718 51.1653 -0.337311 50.4153 0.475098ZM53.7275 17.2859L53.7275 21.9729L51.7277 21.7854C49.6654 21.5979 49.6654 21.5979 49.4779 17.9108C49.228 13.2238 49.5404 12.5363 51.8527 12.5363L53.7275 12.5363L53.7275 17.2859Z" fill="#FFFFFF" fill-opacity="0.100000" fill-rule="nonzero"/>
	<path id="Vector" d="M12.4818 24.0978C11.4819 24.6603 9.98203 24.8477 8.35719 24.5978C5.04503 24.1603 2.17033 25.6602 0.795471 28.4099C-1.07933 32.472 -0.266922 33.8468 10.1695 44.2832L19.6685 53.7823L45.2909 53.6573L70.9132 53.4698L70.9132 51.9074L70.9132 50.3451L46.1658 50.1576L21.4808 50.0327L12.6068 41.0961C7.73225 36.1591 3.73267 31.7845 3.73267 31.4096C3.73267 30.3472 6.04492 28.1599 7.2323 28.1599C7.79475 28.1599 11.7943 31.6595 16.1064 35.9716L23.9806 43.7833L49.103 43.7833C70.9132 43.7833 74.2879 43.9083 74.9753 44.7207C75.4128 45.2831 75.9752 47.4704 76.1627 49.5952C76.5376 53.2198 76.6626 53.4698 78.1 53.4698C79.5998 53.4698 79.6623 53.3448 79.6623 48.6578C79.6623 44.4707 79.4748 43.6583 78.1625 42.2834C77.2876 41.4085 75.6002 40.4086 74.4129 40.0337C73.1005 39.6587 62.914 39.4088 50.4778 39.4088L28.7926 39.4088L29.105 37.5339C29.7925 34.2843 28.7926 31.5345 25.7929 28.1599C24.2305 26.4101 22.1683 24.5978 21.1684 24.0978C18.9811 22.9105 14.5441 22.9105 12.4818 24.0978ZM19.2311 27.7849C21.4808 28.9723 24.1056 31.7845 24.918 33.8468C25.5429 35.5341 25.2304 38.1589 24.418 38.1589C24.2305 38.1589 21.6683 35.7841 18.7936 32.9094C14.5441 28.5974 13.7941 27.5975 14.7315 27.3475C16.7938 26.8475 17.4812 26.91 19.2311 27.7849Z" fill="#FFFFFF" fill-opacity="0.100000" fill-rule="nonzero"/>
	<path id="Vector" d="M6.16988 50.1575C5.16998 51.9698 5.91991 57.4067 7.35725 59.4065C9.04459 61.6563 11.1069 62.5312 14.8565 62.5312C17.7312 62.5312 18.1061 62.6562 18.1061 63.7811C18.1061 64.531 16.9813 66.1558 15.6064 67.4682C13.5441 69.4055 13.1067 70.2804 13.1067 72.1552C13.1067 75.2174 14.544 77.9046 16.8563 79.092C21.9807 81.7792 27.4802 78.2171 27.4802 72.1552C27.4802 70.2804 27.0427 69.4055 24.9804 67.4682C23.6056 66.1558 22.4807 64.531 22.4807 63.7811C22.4807 62.5312 22.7932 62.5312 42.7911 62.5312L63.1015 62.5312L63.1015 63.9061C63.1015 64.8434 62.4141 65.7184 61.2892 66.4058C57.1646 68.718 56.4772 74.155 59.7268 77.5921C64.1639 82.2167 71.8506 79.2795 71.8506 73.0301C71.8506 69.9679 70.5382 67.3432 68.4759 66.4058C67.3511 65.9059 66.8511 65.2184 66.8511 64.156C66.8511 62.5937 66.9136 62.5937 72.8505 62.4062C77.7875 62.2812 79.0374 62.0312 79.5998 61.1563C80.0372 60.4064 80.0372 59.844 79.5998 59.4065C79.1623 58.9691 68.5384 58.7191 46.1657 58.7191C21.4808 58.7191 12.9817 58.5316 11.8568 57.9692C10.5444 57.2817 10.2944 56.6568 10.107 53.7821C9.85699 48.9701 7.79471 47.0953 6.16988 50.1575ZM22.8557 70.9678C25.1054 74.3425 21.0434 77.4047 17.9812 74.5925C16.5438 73.2801 16.5438 72.2177 18.1061 70.6554C19.7935 68.968 21.6058 69.093 22.8557 70.9678ZM67.1636 70.6554C68.8509 72.4677 67.7885 75.2799 65.4138 75.5298C63.164 75.7798 61.8516 74.7174 61.8516 72.4677C61.8516 69.5305 65.1638 68.4056 67.1636 70.6554Z" fill="#FFFFFF" fill-opacity="0.100000" fill-rule="nonzero"/>
</svg>
