<svg width="81.269836" height="80.000092" viewBox="0 0 81.2698 80.0001" fill="none" xmlns="http://www.w3.org/2000/svg" xmlns:xlink="http://www.w3.org/1999/xlink">
	<defs/>
	<path id="Vector" d="M39.5555 1.01587C39.0476 2.34921 40.3809 3.68256 41.3333 2.73016C42.1587 1.90479 41.6508 0 40.6349 0C40.2539 0 39.8095 0.444458 39.5555 1.01587Z" fill="#FFFFFF" fill-opacity="0.100000" fill-rule="nonzero"/>
	<path id="Vector" d="M19.873 5.46054C19.619 6.15897 21.3333 8.31769 25.4603 12.4447C28.6984 15.7463 31.746 18.4129 32.2539 18.4129C32.6984 18.4129 33.2063 17.9685 33.4603 17.3971C33.7142 16.6986 31.9999 14.5399 27.873 10.4129C24.6349 7.11136 21.5872 4.44467 21.0793 4.44467C20.6349 4.44467 20.127 4.88913 19.873 5.46054Z" fill="#FFFFFF" fill-opacity="0.100000" fill-rule="nonzero"/>
	<path id="Vector" d="M53.3968 10.4129C49.2698 14.5399 47.5555 16.6986 47.8095 17.3971C48.0635 17.9685 48.5714 18.4129 49.0158 18.4129C49.5238 18.4129 52.5714 15.7463 55.8095 12.4447C59.9365 8.31769 61.6508 6.15897 61.3968 5.46054C61.1428 4.88913 60.6349 4.44467 60.1904 4.44467C59.6825 4.44467 56.6349 7.11136 53.3968 10.4129Z" fill="#FFFFFF" fill-opacity="0.100000" fill-rule="nonzero"/>
	<path id="Vector" d="M39.3651 7.55554C38.6667 8.88889 38.4762 15.746 39.1111 17.3968C39.619 18.7302 41.6508 18.7302 42.1587 17.3968C42.3492 16.8254 42.5397 14.6667 42.5397 12.6349C42.5397 8.82538 41.7778 6.34921 40.6349 6.34921C40.3174 6.34921 39.746 6.92062 39.3651 7.55554Z" fill="#FFFFFF" fill-opacity="0.100000" fill-rule="nonzero"/>
	<path id="Vector" d="M14.4762 17.5874C11.0476 21.3969 0 35.3652 0 36.0001C0 36.381 1.90475 38.3493 4.19049 40.381C6.53967 42.4128 9.90475 46.0953 11.746 48.508C15.1111 52.9525 15.1111 53.016 14.4127 55.6826C13.8413 57.9048 13.9048 58.5398 14.8571 59.9366C15.4286 60.889 16.6349 61.9684 17.5238 62.3493C18.5397 62.7937 19.0476 63.5556 19.0476 64.5715C19.0476 66.4128 21.7143 69.2065 23.4921 69.2065C24.3174 69.2065 24.7619 69.6509 24.7619 70.4763C24.7619 72.3176 27.5555 74.9207 29.5238 74.9207C30.4127 74.9207 31.1111 75.1747 31.1111 75.4922C31.1111 75.8096 31.873 76.9525 32.7619 78.0318C34.0317 79.5556 34.9206 80.0001 36.6984 80.0001C37.9048 80.0001 39.4921 79.5556 40.127 78.9207C41.0793 78.0953 41.5873 78.0318 42.9206 78.6033C46.6667 80.3176 51.4286 78.2858 51.4286 74.9207C51.4286 74.0953 51.873 73.6509 52.6984 73.6509C54.4127 73.6509 57.1429 70.9207 57.1429 69.2065C57.1429 68.381 57.5873 67.9366 58.4127 67.9366C60.127 67.9366 62.8571 65.2065 62.8571 63.4922C62.8571 62.6667 63.3016 62.2223 64.127 62.2223C64.8889 62.2223 66.2222 61.4604 67.1111 60.5715C68.5079 59.1747 68.6984 58.5398 68.381 56.0636C68.127 53.6509 68.5079 52.381 70.5397 47.9366C72.6349 43.5556 73.6508 42.2223 77.1429 39.3017C79.3651 37.3969 81.2698 35.5556 81.2698 35.1747C81.2698 34.1588 67.3651 16.2541 66.3492 16.0001C65.9048 15.8731 63.4921 17.0795 61.0159 18.6667L56.5079 21.5874L50.6667 21.5874C46.7302 21.5874 43.3651 22.0318 40.1905 22.9207L35.5555 24.1906L31.0476 22.9207C28.5714 22.2223 24.5079 20.381 21.9048 18.7937C19.3651 17.1429 17.0159 15.8731 16.6984 15.8731C16.381 15.8731 15.3651 16.635 14.4762 17.5874ZM20.381 21.6509L23.4286 23.5556L16.381 32.1271L9.33334 40.635L6.73016 38.2858C5.33334 36.9525 4.19049 35.6826 4.25397 35.4286C4.50793 34.7937 16.7619 19.6826 17.0794 19.6826C17.2064 19.6826 18.7302 20.5715 20.381 21.6509ZM71.746 27.3017C77.9683 35.3652 77.9048 35.0477 73.5238 38.1588L71.8095 39.4287L65.7143 31.8096C62.4127 27.5556 59.6825 23.9366 59.6825 23.6826C59.6825 23.0477 64.8889 19.7461 65.5873 19.9366C65.9048 20.0001 68.6349 23.3017 71.746 27.3017ZM62.9206 33.3969L69.7143 42.0318L67.8095 46.2858C66.7302 48.5715 65.7778 50.6033 65.6508 50.7937C65.4603 50.9207 61.2698 46.9842 56.3174 42.0318L47.3016 33.0795L42.1587 32.635L37.0159 32.1906L34.2857 37.016C31.4921 41.9048 30.6032 42.7937 28.8889 42.1588C26.9206 41.3969 27.2381 39.4287 30.4127 33.8414L33.6508 28.2541L38.8571 26.5398C42.9206 25.2699 45.5238 24.889 50.1587 24.8255L56.1905 24.762L62.9206 33.3969ZM29.9683 25.9048C30.8571 26.2858 30.5397 27.1747 27.5555 32.381C25.7143 35.6826 24.127 38.9207 24.127 39.5556C24.127 41.6509 25.9683 44.3175 27.9365 44.9525C31.3016 46.1588 33.3333 44.889 36.254 39.8731L38.8571 35.4286L42.4762 35.8731L46.0317 36.2541L55.746 45.9048C63.6825 53.8414 65.3968 55.8096 65.2698 57.1429C65.1429 58.2858 64.6349 58.7937 63.4921 58.9207C62.2222 59.0477 60.7619 57.9048 56.1905 53.3334C50.4762 47.5556 49.1429 46.7937 48.4445 48.635C48.1905 49.3334 49.8413 51.4286 53.9048 55.4922C58.5397 60.1906 59.746 61.7144 59.5555 62.9207C59.4286 63.9366 58.8571 64.508 57.8413 64.635C56.6984 64.8255 55.3016 63.8731 52 60.5715C47.9365 56.508 47.5555 56.3176 46.6032 57.2699C45.5873 58.2858 45.8413 58.6667 49.7778 62.7937C53.0159 66.0953 54.0317 67.5556 53.8413 68.6985C53.5238 71.2382 51.1111 70.9207 47.8095 67.9366C45.2064 65.4604 44.8889 65.3334 43.9365 66.2858C42.9841 67.2382 43.1111 67.4922 45.6508 70.0953C48.9524 73.4604 49.1429 75.8731 46.0317 75.8731C44.3174 75.8731 44.127 75.6826 44.3174 74.0318C44.6349 71.3652 43.3016 68.635 41.2064 67.5556C40.0635 66.9842 39.3651 66.0953 39.3651 65.3334C39.3651 63.1747 38.0952 61.5239 35.8095 60.5715C34.4127 60.0001 33.6508 59.2382 33.6508 58.4763C33.6508 56.889 30.7302 54.6033 28.8254 54.6033C27.8095 54.6033 27.0476 53.9684 26.4127 52.762C25.1429 50.4128 22.2857 49.3334 19.619 50.2858C18.6032 50.6667 17.5873 50.7937 17.3968 50.6033C16.254 49.5239 12.0635 43.4922 12.0635 42.9842C12.0635 42.4128 12.6984 41.5874 21.5238 30.9207C26.0952 25.3969 27.1111 24.762 29.9683 25.9048ZM23.1111 53.7144C24.5079 55.1112 24.381 55.8731 22.4127 57.9048C20.5079 59.8731 18.9841 60.1906 17.7778 58.7303C16.7619 57.5239 17.4603 55.5556 19.4921 53.9684C21.4603 52.4445 21.8413 52.381 23.1111 53.7144ZM30.3492 59.6191C30.5397 60.635 29.8413 61.8414 28.1905 63.5556C25.6508 66.1588 23.3016 66.7937 22.6032 65.016C21.9683 63.3652 22.1587 62.9842 24.5714 60.3176C27.2381 57.2699 29.9683 56.9525 30.3492 59.6191ZM36.0635 65.3334C36.254 66.3493 35.5555 67.5556 33.9048 69.2699C31.3651 71.8731 29.0159 72.508 28.3174 70.7303C27.6825 69.0795 27.873 68.6985 30.2857 66.0318C32.9524 62.9842 35.6825 62.6667 36.0635 65.3334ZM40.9524 71.8096C41.2698 72.762 40.8889 73.6509 39.619 74.9842C37.7143 76.9525 36.254 77.2699 35.0476 76.0636C33.9683 74.9842 34.0952 74.0318 35.619 72.1271C37.2698 70.0318 40.3174 69.8414 40.9524 71.8096Z" fill="#FFFFFF" fill-opacity="0.100000" fill-rule="nonzero"/>
</svg>
