<svg width="62.477448" height="80.000000" viewBox="0 0 62.4774 80" fill="none" xmlns="http://www.w3.org/2000/svg" xmlns:xlink="http://www.w3.org/1999/xlink">
	<defs/>
	<path id="Vector" d="M26.5449 0.580353C25.168 0.89325 21.1626 2.3327 17.6579 3.77216C11.1491 6.46329 10.0226 7.52722 12.0879 9.21698C12.9015 9.90543 12.9015 10.2809 12.0879 12.0959C11.5872 13.3476 11.2117 16.289 11.2117 19.0428C11.2117 22.8604 10.9614 24.1121 9.96002 25.3638C9.27159 26.24 8.70833 27.4916 8.70833 28.1801C8.70833 29.7447 11.462 32.4358 13.0892 32.4358C13.9654 32.4358 14.3409 32.8739 14.3409 33.8127C14.3409 35.6902 17.6579 41.3854 19.6606 42.95C20.7245 43.8262 21.2252 44.8275 21.2252 46.1418C21.2252 47.769 20.8497 48.2697 18.5967 49.3962C17.0947 50.1472 15.3423 51.3989 14.6539 52.1499C13.9028 53.0887 11.6498 54.1526 8.89609 54.9036C5.51653 55.905 4.0145 56.7186 2.51247 58.4084C0.134262 61.0995 -0.178665 62.8519 0.0716705 72.1769C0.196838 78.3728 0.447174 79.6871 1.1982 79.6871C1.9492 79.6871 2.19954 78.1225 2.44989 70.4246C2.7628 61.2247 2.7628 61.0995 4.51517 59.5975C5.95461 58.3458 13.4648 55.5921 15.4675 55.5921C16.7817 55.5921 16.8443 57.6573 15.5926 59.0342C13.9028 60.8492 14.028 61.8505 16.2185 66.2314L18.096 69.9865L16.594 69.9865C15.6552 69.9865 14.9668 69.5484 14.779 68.7348C14.3409 67.1076 13.0892 67.1076 12.6512 68.6722C12.4008 69.6736 11.7124 69.9865 9.39676 70.1117L6.51787 70.2994L6.51787 74.9933L6.51787 79.6871L13.7151 79.6871C20.7245 79.6871 20.8497 79.6871 21.2252 78.1851L21.5381 76.683L22.2892 78.3728C23.1028 80.0626 23.9789 80.4381 24.6674 79.3741C24.8551 79.0612 23.1653 75.1184 20.9123 70.6749C18.6593 66.1688 16.8443 62.1634 16.8443 61.7253C16.8443 61.3498 17.5953 60.2233 18.4715 59.222L20.1613 57.5322L18.4089 55.2791C17.4702 54.0275 16.8443 52.9009 16.9069 52.8383C17.6579 52.2125 21.413 50.5227 21.6007 50.7731C21.7259 50.8982 22.5395 53.339 23.4157 56.2179C24.2919 59.1594 25.2306 61.7253 25.5435 62.0383C26.4197 62.9145 27.6088 61.9131 27.2333 60.724C26.9204 59.7852 27.4211 59.6601 31.2387 59.6601C33.9299 59.6601 35.5571 59.9104 35.4319 60.2859C35.3067 60.5988 34.368 63.7906 33.3666 67.2953C32.3652 70.8627 31.3639 73.7415 31.1761 73.7415C30.9884 73.7415 30.4251 72.1769 29.987 70.2994C28.9857 66.1688 27.8592 64.3539 26.9204 65.3552C25.9191 66.294 29.987 79.6871 31.2387 79.6871C31.9272 79.6871 33.3666 75.7443 36.2455 65.9185C38.4985 58.3458 40.5012 51.7744 40.689 51.2737C40.9393 50.5853 41.3774 50.5853 43.1298 51.5241C44.3189 52.1499 45.4454 52.7132 45.5706 52.8383C45.6331 52.9009 45.0073 54.0275 44.0685 55.2791L42.3162 57.5322L44.006 59.222C44.8821 60.2233 45.6331 61.3498 45.6331 61.7253C45.6331 62.1634 43.8182 66.1688 41.5652 70.6749C37.7475 78.1851 37.2468 80 38.8114 80C39.4999 80 48.1365 62.8519 48.1365 61.4124C48.1365 60.8492 47.5733 59.7852 46.8848 59.0342C45.6331 57.6573 45.6957 55.5921 47.01 55.5921C49.0127 55.5921 56.5228 58.3458 57.9623 59.5975C59.7146 61.0995 59.7146 61.2247 60.0276 70.4246C60.2779 78.1225 60.5282 79.6871 61.2793 79.6871C62.0303 79.6871 62.2806 78.3728 62.4058 72.1769C62.6561 62.8519 62.3432 61.0995 59.965 58.4084C58.463 56.7186 56.9609 55.905 53.5814 54.9036C50.8277 54.1526 48.5746 53.0887 47.8236 52.1499C47.1352 51.3989 45.3828 50.1472 43.9434 49.3962C41.6277 48.2697 41.2522 47.769 41.2522 46.1418C41.2522 44.8275 41.7529 43.8262 42.8168 42.95C44.8195 41.3854 48.1365 35.6902 48.1365 33.8127C48.1365 32.8739 48.512 32.4358 49.3882 32.4358C51.0154 32.4358 53.7691 29.7447 53.7691 28.1801C53.7691 27.4916 53.2059 26.24 52.5174 25.3638C51.4535 23.9869 51.2657 22.8604 51.2657 16.6646C51.2657 7.08911 49.576 3.89731 43.693 2.39529C42.5039 2.08237 40.4386 1.45651 39.0618 0.89325C36.3081 -0.170654 30.4251 -0.295837 26.5449 0.580353ZM38.4985 3.02112C39.3747 3.39664 41.0019 4.58575 42.0033 5.64969C43.8182 7.65237 43.8808 7.65237 44.8195 6.46329C45.6957 5.21161 45.7583 5.27417 47.2603 6.96396C48.6998 8.59116 48.7624 9.15442 48.7624 16.2264C48.7624 23.0482 48.6372 23.7366 47.6984 23.5488C46.8848 23.4236 46.4467 22.4849 46.1964 20.4822C45.7583 17.4156 43.8182 13.0972 42.3162 11.8456C41.5652 11.2197 40.5638 11.2823 37.372 12.1584C32.4278 13.4727 23.5408 13.6605 20.5994 12.4714C18.096 11.47 14.3409 8.84149 14.3409 8.09048C14.3409 7.65237 24.7925 3.33405 27.1707 2.83337C29.7367 2.27011 36.8087 2.39529 38.4985 3.02112ZM19.6606 14.4115C23.1653 15.851 30.9884 16.1013 35.3067 15.0374C41.44 13.4727 41.0019 13.4102 42.4413 16.3516C43.1924 17.8536 43.7556 20.0441 43.7556 21.2332C43.8182 24.2372 45.1325 25.7393 48.2617 26.1148C50.3896 26.4277 51.0154 26.7406 51.1406 27.8046C51.3909 29.3692 49.6385 30.308 48.3869 29.244C47.0726 28.1801 46.4467 28.9937 46.0087 32.3732C45.508 36.1283 42.942 40.1337 39.4373 42.5119C30.6129 48.3949 17.8457 42.7623 16.4688 32.3732C16.0307 28.9937 15.4049 28.1801 14.028 29.3066C12.7137 30.4331 11.0865 29.5569 11.3369 27.9297C11.462 26.7406 12.0253 26.4277 14.2158 26.1148C17.7205 25.6767 18.7844 24.2372 18.5341 20.2319C18.4715 17.9162 18.1586 17.1026 17.4702 17.1026C16.7817 17.1026 16.4688 17.9788 16.2185 20.2319C15.9681 22.5475 15.6552 23.4236 14.8416 23.5488C13.8403 23.7366 13.7151 23.1733 13.7151 19.1053C13.7151 13.5353 14.0906 12.1584 15.53 12.7843C16.0933 12.972 17.9708 13.7856 19.6606 14.4115ZM34.9938 46.7051L38.7489 45.7663L38.7489 47.2683C38.7489 48.0819 38.3108 50.3976 37.7475 52.4003C36.5584 56.5308 35.3693 57.4696 31.2387 57.4696C27.1082 57.4696 25.9191 56.5308 24.7299 52.4003C24.1667 50.3976 23.7286 48.0819 23.7286 47.2683L23.7286 45.7663L27.4837 46.7051C30.8006 47.5187 31.6768 47.5187 34.9938 46.7051ZM12.9641 73.2409C13.5273 73.8041 13.9028 73.8041 14.4661 73.2409C14.9042 72.8028 16.0307 72.4899 16.9695 72.4899C18.5967 72.4899 18.7218 72.6776 18.7218 74.9933L18.7218 77.4966L13.7151 77.4966L8.70833 77.4966L8.70833 74.9933C8.70833 72.6776 8.8335 72.4899 10.4607 72.4899C11.3995 72.4899 12.526 72.8028 12.9641 73.2409Z" fill="#FFFFFF" fill-opacity="0.100000" fill-rule="nonzero"/>
	<path id="Vector" d="M21.5381 21.7964C20.8497 22.9229 22.164 23.7991 24.1041 23.5488C26.6075 23.2985 26.4823 21.5461 23.9164 21.2957C22.8524 21.1706 21.7885 21.4209 21.5381 21.7964Z" fill="#FFFFFF" fill-opacity="0.100000" fill-rule="nonzero"/>
	<path id="Vector" d="M36.5584 21.7964C35.87 22.9229 37.1842 23.7991 39.1244 23.5488C41.6277 23.2985 41.5026 21.5461 38.9366 21.2957C37.8727 21.1706 36.8087 21.4209 36.5584 21.7964Z" fill="#FFFFFF" fill-opacity="0.100000" fill-rule="nonzero"/>
	<path id="Vector" d="M22.7272 25.8018C22.2265 27.1787 22.915 28.8685 23.9163 28.493C24.2918 28.3678 24.6673 27.6168 24.6673 26.8032C24.6673 25.1134 23.2905 24.3624 22.7272 25.8018Z" fill="#FFFFFF" fill-opacity="0.100000" fill-rule="nonzero"/>
	<path id="Vector" d="M37.7475 25.8018C37.2468 27.1787 37.9352 28.8685 38.9366 28.493C39.3121 28.3678 39.6876 27.6168 39.6876 26.8032C39.6876 25.1134 38.3108 24.3624 37.7475 25.8018Z" fill="#FFFFFF" fill-opacity="0.100000" fill-rule="nonzero"/>
	<path id="Vector" d="M26.5449 34.2507C25.9191 35.3147 26.7327 36.1283 29.236 36.8793C31.1761 37.4425 32.0523 37.3799 33.9924 36.5663C36.3707 35.565 36.8713 33.8127 34.6183 34.2507C32.4904 34.6263 29.0483 34.5637 28.0469 34.063C27.4211 33.8127 26.7952 33.8752 26.5449 34.2507Z" fill="#FFFFFF" fill-opacity="0.100000" fill-rule="nonzero"/>
	<path id="Vector" d="M51.078 67.8588C50.8276 68.1091 50.6399 68.7975 50.6399 69.4234C50.6399 70.1118 50.0766 70.6125 49.263 70.7376C47.4481 70.988 47.3855 72.7404 49.2004 72.9907C50.0766 73.1158 50.6399 73.6791 50.765 74.5553C51.0154 76.3702 52.7678 76.3702 53.0181 74.5553C53.1433 73.6791 53.7065 73.1158 54.5827 72.9907C55.3337 72.8655 55.9596 72.3648 55.9596 71.8642C55.9596 71.3635 55.3337 70.8628 54.5827 70.7376C53.7691 70.6125 53.1433 69.9866 53.0181 69.2356C52.8303 67.8588 51.829 67.1703 51.078 67.8588Z" fill="#FFFFFF" fill-opacity="0.100000" fill-rule="nonzero"/>
</svg>
